G04 #@! TF.FileFunction,Soldermask,Top*
%FSLAX46Y46*%
G04 Gerber Fmt 4.6, Leading zero omitted, Abs format (unit mm)*
G04 Created by KiCad (PCBNEW 4.0.7-e2-6376~58~ubuntu16.04.1) date Wed Mar 28 10:52:48 2018*
%MOMM*%
%LPD*%
G01*
G04 APERTURE LIST*
%ADD10C,0.203200*%
%ADD11R,1.203200X1.003200*%
%ADD12R,1.003200X1.203200*%
%ADD13R,1.003200X1.003200*%
%ADD14R,2.489200X0.965200*%
%ADD15R,0.965200X2.489200*%
%ADD16R,2.203200X0.703200*%
%ADD17R,1.803200X2.003200*%
%ADD18C,0.177800*%
G04 APERTURE END LIST*
D10*
D11*
X137160000Y-132730200D03*
X137160000Y-134630200D03*
X134620000Y-132730200D03*
X134620000Y-134630200D03*
X139700000Y-134630200D03*
X139700000Y-132730200D03*
X156972000Y-112410200D03*
X156972000Y-114310200D03*
X158750000Y-114310200D03*
X158750000Y-112410200D03*
X162306000Y-114310200D03*
X162306000Y-112410200D03*
X160528000Y-114310200D03*
X160528000Y-112410200D03*
D12*
X150175000Y-114249200D03*
X148275000Y-114249200D03*
X150175000Y-112598200D03*
X148275000Y-112598200D03*
X117414000Y-131140200D03*
X119314000Y-131140200D03*
X136591000Y-114503200D03*
X138491000Y-114503200D03*
D11*
X169672000Y-124724200D03*
X169672000Y-122824200D03*
X120523000Y-123454200D03*
X120523000Y-121554200D03*
D13*
X154632000Y-112405200D03*
X154632000Y-110505200D03*
X152200000Y-111455200D03*
D14*
X150495000Y-123393200D03*
X150495000Y-124663200D03*
X150495000Y-125933200D03*
X150495000Y-127203200D03*
D15*
X152400000Y-129108200D03*
X153670000Y-129108200D03*
X154940000Y-129108200D03*
X156210000Y-129108200D03*
X157480000Y-129108200D03*
X158750000Y-129108200D03*
X160020000Y-129108200D03*
X161290000Y-129108200D03*
X162560000Y-129108200D03*
D14*
X164465000Y-127203200D03*
X164465000Y-125933200D03*
X164465000Y-124663200D03*
X164465000Y-123393200D03*
X164465000Y-122123200D03*
X164465000Y-120853200D03*
X164465000Y-119583200D03*
D15*
X162560000Y-117678200D03*
X161290000Y-117678200D03*
X160020000Y-117678200D03*
X158750000Y-117678200D03*
X157480000Y-117678200D03*
X156210000Y-117678200D03*
X154940000Y-117678200D03*
X153670000Y-117678200D03*
X152400000Y-117678200D03*
D14*
X150495000Y-119583200D03*
X150495000Y-120853200D03*
X150495000Y-122123200D03*
D16*
X134589000Y-117170200D03*
X134589000Y-118440200D03*
X134589000Y-119710200D03*
X134589000Y-120980200D03*
X134589000Y-122250200D03*
X134589000Y-123520200D03*
X134589000Y-124790200D03*
X134589000Y-126060200D03*
X140589000Y-126060200D03*
X140589000Y-124790200D03*
X140589000Y-123520200D03*
X140589000Y-122250200D03*
X140589000Y-120980200D03*
X140589000Y-119710200D03*
X140589000Y-118440200D03*
X140589000Y-117170200D03*
X123286000Y-118440200D03*
X123286000Y-119710200D03*
X123286000Y-120980200D03*
X123286000Y-122250200D03*
X123286000Y-123520200D03*
X123286000Y-124790200D03*
X123286000Y-126060200D03*
X129286000Y-126060200D03*
X129286000Y-124790200D03*
X129286000Y-123520200D03*
X129286000Y-122250200D03*
X129286000Y-120980200D03*
X129286000Y-119710200D03*
X129286000Y-118440200D03*
D17*
X119767000Y-133553200D03*
X116967000Y-133553200D03*
D12*
X146177000Y-122250200D03*
X144277000Y-122250200D03*
D18*
G36*
X171996100Y-144946376D02*
X170778176Y-146164300D01*
X115987824Y-146164300D01*
X114769900Y-144946376D01*
X114769900Y-138722100D01*
X171996100Y-138722100D01*
X171996100Y-144946376D01*
X171996100Y-144946376D01*
G37*
X171996100Y-144946376D02*
X170778176Y-146164300D01*
X115987824Y-146164300D01*
X114769900Y-144946376D01*
X114769900Y-138722100D01*
X171996100Y-138722100D01*
X171996100Y-144946376D01*
M02*
