M48
;DRILL file {KiCad 4.0.7-e2-6376~58~ubuntu16.04.1} date Wed Mar 28 10:53:49 2018
;FORMAT={-:-/ absolute / metric / decimal}
FMAT,2
METRIC,TZ
T1C0.305
%
G90
G05
M71
T1
X115.951Y-127.838
X115.951Y-128.854
X115.951Y-129.87
X115.951Y-135.585
X116.84Y-135.585
X117.475Y-127.838
X117.475Y-128.854
X117.475Y-129.87
X117.729Y-135.585
X118.364Y-127.838
X118.364Y-128.854
X118.364Y-129.87
X118.999Y-123.52
X120.65Y-127.838
X120.65Y-128.854
X120.65Y-129.87
X125.095Y-129.489
X127.965Y-131.775
X129.286Y-126.822
X130.937Y-120.98
X132.486Y-117.17
X134.62Y-126.822
X135.306Y-114.503
X135.89Y-132.73
X137.49Y-127.838
X138.303Y-118.44
X138.303Y-128.473
X141.58Y-115.367
X142.392Y-119.71
X142.392Y-126.619
X142.418Y-116.992
X143.002Y-120.98
X143.51Y-118.44
X144.145Y-119.075
X145.009Y-124.13
X145.034Y-123.266
X145.085Y-117.094
X145.669Y-116.23
X147.32Y-109.042
X147.32Y-121.742
X148.463Y-119.583
X148.971Y-135.966
X149.86Y-134.061
X149.86Y-135.966
X150.495Y-128.6
X151.511Y-135.966
X152.4Y-135.966
X154.051Y-135.966
X154.915Y-126.873
X154.94Y-135.966
X156.21Y-126.213
X156.591Y-135.839
X157.48Y-125.019
X157.48Y-135.839
X158.75Y-109.042
X158.75Y-111.455
X158.75Y-126.949
X159.131Y-135.839
X160.02Y-125.628
X160.02Y-135.839
X161.671Y-135.839
X161.925Y-122.123
X161.925Y-123.393
X161.95Y-125.933
X162.56Y-127.203
X162.56Y-135.839
X163.678Y-129.108
X164.211Y-135.839
X164.846Y-117.653
X165.1Y-135.839
X166.446Y-119.583
X166.878Y-133.172
X166.878Y-134.061
X166.878Y-135.839
X167.056Y-120.879
X167.259Y-115.773
X167.64Y-122.123
X168.275Y-123.393
X170.18Y-133.045
X170.18Y-134.061
X170.18Y-135.077
T0
M30
