G04 #@! TF.FileFunction,Copper,L2,Bot,Signal*
%FSLAX46Y46*%
G04 Gerber Fmt 4.6, Leading zero omitted, Abs format (unit mm)*
G04 Created by KiCad (PCBNEW 4.0.7-e2-6376~58~ubuntu16.04.1) date Wed Mar 28 10:52:48 2018*
%MOMM*%
%LPD*%
G01*
G04 APERTURE LIST*
%ADD10C,0.203200*%
%ADD11R,1.270000X8.001000*%
%ADD12C,0.609600*%
%ADD13C,0.304800*%
%ADD14C,0.177800*%
G04 APERTURE END LIST*
D10*
D11*
X116840000Y-141224000D03*
X119380000Y-141224000D03*
X121920000Y-141224000D03*
X124460000Y-141224000D03*
X127000000Y-141224000D03*
X129540000Y-141224000D03*
X132080000Y-141224000D03*
X134620000Y-141224000D03*
X137160000Y-141224000D03*
X139700000Y-141224000D03*
X142240000Y-141224000D03*
X144780000Y-141224000D03*
X147320000Y-141224000D03*
X149860000Y-141224000D03*
X152400000Y-141224000D03*
X154940000Y-141224000D03*
X157480000Y-141224000D03*
X160020000Y-141224000D03*
X162560000Y-141224000D03*
X165100000Y-141224000D03*
X167640000Y-141224000D03*
X170180000Y-141224000D03*
D12*
X158750000Y-126949200D03*
X117729000Y-135585200D03*
X115951000Y-135585200D03*
X118364000Y-129870200D03*
X117475000Y-129870200D03*
X120650000Y-129870200D03*
X118364000Y-128854200D03*
X117475000Y-128854200D03*
X120650000Y-128854200D03*
X118364000Y-127838200D03*
X117475000Y-127838200D03*
X120650000Y-127838200D03*
X115951000Y-129870200D03*
X115951000Y-128854200D03*
X115951000Y-127838200D03*
X116840000Y-135585200D03*
X170180000Y-133045200D03*
X170180000Y-134061200D03*
X135305800Y-114503200D03*
X170180000Y-135077200D03*
X118999000Y-123520200D03*
X130937000Y-120980200D03*
X134620000Y-126822200D03*
X129286000Y-126822200D03*
X135890000Y-132730200D03*
X145084800Y-117094000D03*
X147320000Y-109042200D03*
X158750000Y-109042200D03*
X158750000Y-111455200D03*
X145669000Y-116230400D03*
X127965200Y-131775200D03*
X142417800Y-116992400D03*
X137490200Y-127838200D03*
X142392400Y-126619000D03*
X149860000Y-134061200D03*
X142392400Y-119710200D03*
X164846000Y-117652800D03*
X149860000Y-135966200D03*
X152400000Y-135966200D03*
X166446200Y-119583200D03*
X167055800Y-120878600D03*
X154940000Y-135966200D03*
X143002000Y-120980200D03*
X161925000Y-122123200D03*
X167640000Y-122123200D03*
X157480000Y-135839200D03*
X145034000Y-123266200D03*
X161925000Y-123393200D03*
X168275000Y-123393200D03*
X160020000Y-135839200D03*
X161950400Y-125933200D03*
X145008600Y-124129800D03*
X166878000Y-133172200D03*
X162560000Y-135839200D03*
X144145000Y-119075200D03*
X162560000Y-127203200D03*
X166878000Y-134061200D03*
X165100000Y-135839200D03*
X143510000Y-118440200D03*
X163677600Y-129108200D03*
X132486400Y-117170200D03*
X125095000Y-129489200D03*
X150495000Y-128600200D03*
X157480000Y-125018800D03*
X160020000Y-125628400D03*
X156210000Y-126212600D03*
X154914600Y-126873000D03*
X148971000Y-135966200D03*
X151511000Y-135966200D03*
X154051000Y-135966200D03*
X156591000Y-135839200D03*
X159131000Y-135839200D03*
X161671000Y-135839200D03*
X164211000Y-135839200D03*
X166878000Y-135839200D03*
X167259000Y-115773200D03*
X141579600Y-115366800D03*
X138303000Y-128473200D03*
X138303000Y-118440200D03*
X148463000Y-119583200D03*
X147320000Y-121742200D03*
D13*
X116840000Y-135585200D02*
X117729000Y-135585200D01*
X120650000Y-129870200D02*
X118364000Y-129870200D01*
X118364000Y-129870200D02*
X117475000Y-129870200D01*
X120650000Y-128854200D02*
X118364000Y-128854200D01*
X118364000Y-128854200D02*
X117475000Y-128854200D01*
X120650000Y-127838200D02*
X118364000Y-127838200D01*
X118364000Y-127838200D02*
X117475000Y-127838200D01*
X116840000Y-141224000D02*
X116840000Y-135585200D01*
X135890000Y-132730200D02*
X135890000Y-132664200D01*
X148158200Y-116052600D02*
X148158200Y-115189000D01*
X147116800Y-117094000D02*
X148158200Y-116052600D01*
X145084800Y-117094000D02*
X147116800Y-117094000D01*
X148158200Y-115189000D02*
X148158200Y-109880400D01*
X148158200Y-109880400D02*
X147320000Y-109042200D01*
X158750000Y-111455200D02*
X158750000Y-109042200D01*
D14*
X127965200Y-131775200D02*
X131953000Y-131775200D01*
X137287000Y-117805200D02*
X137287000Y-117779800D01*
X137261600Y-117805200D02*
X137287000Y-117805200D01*
X136906000Y-118160800D02*
X137261600Y-117805200D01*
X136906000Y-126822200D02*
X136906000Y-118160800D01*
X131953000Y-131775200D02*
X136906000Y-126822200D01*
X138963400Y-116103400D02*
X137287000Y-117779800D01*
X143967200Y-116103400D02*
X138963400Y-116103400D01*
X145669000Y-116230400D02*
X145542000Y-116103400D01*
X145542000Y-116103400D02*
X143967200Y-116103400D01*
X137515600Y-118313200D02*
X137515600Y-118287800D01*
X137515600Y-118287800D02*
X138760200Y-117043200D01*
X142367000Y-117043200D02*
X138760200Y-117043200D01*
X142417800Y-116992400D02*
X142367000Y-117043200D01*
X137515600Y-127812800D02*
X137490200Y-127838200D01*
X137515600Y-118313200D02*
X137515600Y-127812800D01*
X149860000Y-134086600D02*
X149860000Y-134061200D01*
X149860000Y-134086600D02*
X149860000Y-135966200D01*
X149860000Y-134086600D02*
X149860000Y-135966200D01*
X142392400Y-119710200D02*
X142392400Y-126619000D01*
X165862000Y-118668800D02*
X164846000Y-117652800D01*
X165862000Y-131287608D02*
X165862000Y-118668800D01*
X163977418Y-133172190D02*
X165862000Y-131287608D01*
X152654010Y-133172190D02*
X163977418Y-133172190D01*
X149860000Y-135966200D02*
X152654010Y-133172190D01*
X166441153Y-131211353D02*
X166441153Y-119588247D01*
X152400000Y-135966200D02*
X154838408Y-133527792D01*
X154838408Y-133527792D02*
X164124714Y-133527792D01*
X164124714Y-133527792D02*
X166441153Y-131211353D01*
X166441153Y-119588247D02*
X166446200Y-119583200D01*
X162890200Y-133883394D02*
X164272010Y-133883394D01*
X167055800Y-131099604D02*
X167055800Y-120878600D01*
X164272010Y-133883394D02*
X167055800Y-131099604D01*
X157022806Y-133883394D02*
X162890200Y-133883394D01*
X154940000Y-135966200D02*
X157022806Y-133883394D01*
X143383000Y-122631200D02*
X143002000Y-122250200D01*
X143002000Y-122250200D02*
X143002000Y-120980200D01*
X161925000Y-122123200D02*
X161417000Y-122631200D01*
X161417000Y-122631200D02*
X143383000Y-122631200D01*
X167640000Y-129717800D02*
X167640000Y-131018302D01*
X164419306Y-134238996D02*
X161848800Y-134238996D01*
X167640000Y-131018302D02*
X164419306Y-134238996D01*
X167640000Y-129717800D02*
X167640000Y-122123200D01*
X159080204Y-134238996D02*
X161848800Y-134238996D01*
X157480000Y-135839200D02*
X159080204Y-134238996D01*
X161950400Y-123367800D02*
X145135600Y-123367800D01*
X145135600Y-123367800D02*
X145034000Y-123266200D01*
X161925000Y-123393200D02*
X161950400Y-123367800D01*
X166497000Y-132664200D02*
X167259000Y-131902200D01*
X167259000Y-131902200D02*
X168275000Y-130886200D01*
X168275000Y-130886200D02*
X168275000Y-130378200D01*
X168275000Y-126441200D02*
X168275000Y-130378200D01*
X168275000Y-123393200D02*
X168275000Y-126441200D01*
X164566602Y-134594598D02*
X166497000Y-132664200D01*
X166497000Y-132664200D02*
X166878000Y-132283200D01*
X161264602Y-134594598D02*
X164566602Y-134594598D01*
X160020000Y-135839200D02*
X161264602Y-134594598D01*
X166878000Y-132283200D02*
X167259000Y-131902200D01*
X159308800Y-124129800D02*
X161315400Y-124129800D01*
X161950400Y-124764800D02*
X161950400Y-125933200D01*
X161315400Y-124129800D02*
X161950400Y-124764800D01*
X159308800Y-124129800D02*
X145008600Y-124129800D01*
X165100000Y-134950200D02*
X166878000Y-133172200D01*
X163449000Y-134950200D02*
X165100000Y-134950200D01*
X162560000Y-135839200D02*
X163449000Y-134950200D01*
X162026600Y-118846602D02*
X147320000Y-118846602D01*
X147320000Y-118846602D02*
X147015198Y-118846602D01*
X144804650Y-118846602D02*
X147320000Y-118846602D01*
X144145000Y-119075200D02*
X144576052Y-119075200D01*
X144576052Y-119075200D02*
X144804650Y-118846602D01*
X162585400Y-119405402D02*
X162026600Y-118846602D01*
X162585400Y-127177800D02*
X162585400Y-119405402D01*
X162560000Y-127203200D02*
X162585400Y-127177800D01*
X165100000Y-135839200D02*
X166878000Y-134061200D01*
X143510000Y-118440200D02*
X164109400Y-118440200D01*
X164109400Y-118440200D02*
X165252400Y-119583200D01*
X165252400Y-119583200D02*
X164160200Y-118491000D01*
X165252400Y-127533400D02*
X165252400Y-119583200D01*
X163677600Y-129108200D02*
X165252400Y-127533400D01*
X116890802Y-123113800D02*
X116890802Y-119252998D01*
X117475000Y-118668800D02*
X117475000Y-118668802D01*
X116890802Y-119252998D02*
X117475000Y-118668800D01*
X122809000Y-117170200D02*
X118973602Y-117170200D01*
X118973602Y-117170200D02*
X117475000Y-118668802D01*
X128447800Y-117170200D02*
X122809000Y-117170200D01*
X132486400Y-117170200D02*
X128447800Y-117170200D01*
X121920000Y-137109200D02*
X121920000Y-141224000D01*
X116890802Y-132080002D02*
X121920000Y-137109200D01*
X116890802Y-123113800D02*
X116890802Y-132080002D01*
X127000000Y-141224000D02*
X127000000Y-131394200D01*
X127000000Y-131394200D02*
X125095000Y-129489200D01*
X137160000Y-141224000D02*
X137160000Y-136372600D01*
X150495000Y-130347808D02*
X150495000Y-128600200D01*
X147033063Y-133809745D02*
X150495000Y-130347808D01*
X139722855Y-133809745D02*
X147033063Y-133809745D01*
X137160000Y-136372600D02*
X139722855Y-133809745D01*
X139700000Y-141224000D02*
X139700000Y-136372600D01*
X157226002Y-125272798D02*
X157480000Y-125018800D01*
X154487904Y-125272798D02*
X157226002Y-125272798D01*
X153390600Y-126370102D02*
X154487904Y-125272798D01*
X153390600Y-127955106D02*
X153390600Y-126370102D01*
X147180359Y-134165347D02*
X153390600Y-127955106D01*
X141907253Y-134165347D02*
X147180359Y-134165347D01*
X139700000Y-136372600D02*
X141907253Y-134165347D01*
X142240000Y-141224000D02*
X142240000Y-136372600D01*
X154635200Y-125628400D02*
X160020000Y-125628400D01*
X153771598Y-126492002D02*
X154635200Y-125628400D01*
X153771598Y-128077006D02*
X153771598Y-126492002D01*
X147327655Y-134520949D02*
X153771598Y-128077006D01*
X144091651Y-134520949D02*
X147327655Y-134520949D01*
X142240000Y-136372600D02*
X144091651Y-134520949D01*
X154127200Y-127558800D02*
X154127200Y-126644400D01*
X154559000Y-126212600D02*
X156210000Y-126212600D01*
X154127200Y-126644400D02*
X154559000Y-126212600D01*
X144780000Y-141224000D02*
X144780000Y-136017000D01*
X154127200Y-128224302D02*
X154127200Y-127558800D01*
X147474951Y-134876551D02*
X154127200Y-128224302D01*
X145920449Y-134876551D02*
X147474951Y-134876551D01*
X144780000Y-136017000D02*
X145920449Y-134876551D01*
X154914600Y-126873000D02*
X154940000Y-126873000D01*
X147320000Y-141224000D02*
X147320000Y-135534400D01*
X154940000Y-127914400D02*
X154940000Y-126873000D01*
X147320000Y-135534400D02*
X154940000Y-127914400D01*
X149860000Y-141224000D02*
X149860000Y-136855200D01*
X149860000Y-136855200D02*
X148971000Y-135966200D01*
X152400000Y-141224000D02*
X152400000Y-136855200D01*
X152400000Y-136855200D02*
X151511000Y-135966200D01*
X154940000Y-141224000D02*
X154940000Y-136855200D01*
X154940000Y-136855200D02*
X154051000Y-135966200D01*
X157480000Y-141224000D02*
X157480000Y-136728200D01*
X157480000Y-136728200D02*
X156591000Y-135839200D01*
X160020000Y-141224000D02*
X160020000Y-136728200D01*
X160020000Y-136728200D02*
X159131000Y-135839200D01*
X162560000Y-136728200D02*
X162560000Y-141224000D01*
X161671000Y-135839200D02*
X162560000Y-136728200D01*
X165100000Y-141224000D02*
X165100000Y-136728200D01*
X165100000Y-136728200D02*
X164211000Y-135839200D01*
X167640000Y-141224000D02*
X167640000Y-136601200D01*
X167640000Y-136601200D02*
X166878000Y-135839200D01*
X170053000Y-136347200D02*
X169291000Y-135585200D01*
X168910000Y-117424200D02*
X167259000Y-115773200D01*
X168910000Y-135204200D02*
X168910000Y-117424200D01*
X169291000Y-135585200D02*
X168910000Y-135204200D01*
X170180000Y-136474200D02*
X170180000Y-141224000D01*
X170053000Y-136347200D02*
X170180000Y-136474200D01*
X119380000Y-135458200D02*
X119380000Y-141224000D01*
X116535200Y-132613400D02*
X119380000Y-135458200D01*
X116535200Y-118846600D02*
X116535200Y-132613400D01*
X122148600Y-113233200D02*
X116535200Y-118846600D01*
X139471400Y-113233200D02*
X122148600Y-113233200D01*
X141605000Y-115366800D02*
X139471400Y-113233200D01*
X141579600Y-115366800D02*
X141605000Y-115366800D01*
X138303000Y-118440200D02*
X138303000Y-125298200D01*
X138303000Y-125298200D02*
X138303000Y-128473200D01*
X147320000Y-121742200D02*
X148463000Y-120599200D01*
X148463000Y-120599200D02*
X148463000Y-119583200D01*
G36*
X140677863Y-115409531D02*
X140677855Y-115417600D01*
X138963405Y-115417600D01*
X138963400Y-115417599D01*
X138700955Y-115469803D01*
X138478466Y-115618466D01*
X136802066Y-117294866D01*
X136791892Y-117310092D01*
X136776666Y-117320266D01*
X136421066Y-117675866D01*
X136272403Y-117898355D01*
X136237914Y-118071743D01*
X136220200Y-118160800D01*
X136220200Y-126538132D01*
X131668932Y-131089400D01*
X128554681Y-131089400D01*
X128476639Y-131011222D01*
X128145346Y-130873657D01*
X127786628Y-130873344D01*
X127531397Y-130978803D01*
X127484934Y-130909266D01*
X125996760Y-129421092D01*
X125996856Y-129310628D01*
X125859870Y-128979095D01*
X125606439Y-128725222D01*
X125275146Y-128587657D01*
X124916428Y-128587344D01*
X124584895Y-128724330D01*
X124331022Y-128977761D01*
X124193457Y-129309054D01*
X124193144Y-129667772D01*
X124330130Y-129999305D01*
X124583561Y-130253178D01*
X124914854Y-130390743D01*
X125026773Y-130390841D01*
X126314200Y-131678268D01*
X126314200Y-136258300D01*
X122038968Y-136258300D01*
X117576602Y-131795934D01*
X117576602Y-119537066D01*
X117959928Y-119153740D01*
X117959934Y-119153736D01*
X119257670Y-117856000D01*
X131896919Y-117856000D01*
X131974961Y-117934178D01*
X132306254Y-118071743D01*
X132664972Y-118072056D01*
X132996505Y-117935070D01*
X133250378Y-117681639D01*
X133387943Y-117350346D01*
X133388256Y-116991628D01*
X133251270Y-116660095D01*
X132997839Y-116406222D01*
X132666546Y-116268657D01*
X132307828Y-116268344D01*
X131976295Y-116405330D01*
X131897087Y-116484400D01*
X119867268Y-116484400D01*
X122432668Y-113919000D01*
X139187332Y-113919000D01*
X140677863Y-115409531D01*
X140677863Y-115409531D01*
G37*
X140677863Y-115409531D02*
X140677855Y-115417600D01*
X138963405Y-115417600D01*
X138963400Y-115417599D01*
X138700955Y-115469803D01*
X138478466Y-115618466D01*
X136802066Y-117294866D01*
X136791892Y-117310092D01*
X136776666Y-117320266D01*
X136421066Y-117675866D01*
X136272403Y-117898355D01*
X136237914Y-118071743D01*
X136220200Y-118160800D01*
X136220200Y-126538132D01*
X131668932Y-131089400D01*
X128554681Y-131089400D01*
X128476639Y-131011222D01*
X128145346Y-130873657D01*
X127786628Y-130873344D01*
X127531397Y-130978803D01*
X127484934Y-130909266D01*
X125996760Y-129421092D01*
X125996856Y-129310628D01*
X125859870Y-128979095D01*
X125606439Y-128725222D01*
X125275146Y-128587657D01*
X124916428Y-128587344D01*
X124584895Y-128724330D01*
X124331022Y-128977761D01*
X124193457Y-129309054D01*
X124193144Y-129667772D01*
X124330130Y-129999305D01*
X124583561Y-130253178D01*
X124914854Y-130390743D01*
X125026773Y-130390841D01*
X126314200Y-131678268D01*
X126314200Y-136258300D01*
X122038968Y-136258300D01*
X117576602Y-131795934D01*
X117576602Y-119537066D01*
X117959928Y-119153740D01*
X117959934Y-119153736D01*
X119257670Y-117856000D01*
X131896919Y-117856000D01*
X131974961Y-117934178D01*
X132306254Y-118071743D01*
X132664972Y-118072056D01*
X132996505Y-117935070D01*
X133250378Y-117681639D01*
X133387943Y-117350346D01*
X133388256Y-116991628D01*
X133251270Y-116660095D01*
X132997839Y-116406222D01*
X132666546Y-116268657D01*
X132307828Y-116268344D01*
X131976295Y-116405330D01*
X131897087Y-116484400D01*
X119867268Y-116484400D01*
X122432668Y-113919000D01*
X139187332Y-113919000D01*
X140677863Y-115409531D01*
G36*
X141906361Y-117756378D02*
X142237654Y-117893943D01*
X142596372Y-117894256D01*
X142910684Y-117764385D01*
X142746022Y-117928761D01*
X142608457Y-118260054D01*
X142608144Y-118618772D01*
X142710224Y-118865826D01*
X142572546Y-118808657D01*
X142213828Y-118808344D01*
X141882295Y-118945330D01*
X141628422Y-119198761D01*
X141490857Y-119530054D01*
X141490544Y-119888772D01*
X141627530Y-120220305D01*
X141706600Y-120299513D01*
X141706600Y-126029519D01*
X141628422Y-126107561D01*
X141490857Y-126438854D01*
X141490544Y-126797572D01*
X141627530Y-127129105D01*
X141880961Y-127382978D01*
X142212254Y-127520543D01*
X142570972Y-127520856D01*
X142902505Y-127383870D01*
X143156378Y-127130439D01*
X143293943Y-126799146D01*
X143294256Y-126440428D01*
X143157270Y-126108895D01*
X143078200Y-126029687D01*
X143078200Y-123236496D01*
X143120556Y-123264797D01*
X143383000Y-123317000D01*
X144132255Y-123317000D01*
X144132144Y-123444772D01*
X144224195Y-123667554D01*
X144107057Y-123949654D01*
X144106744Y-124308372D01*
X144243730Y-124639905D01*
X144497161Y-124893778D01*
X144828454Y-125031343D01*
X145187172Y-125031656D01*
X145518705Y-124894670D01*
X145597913Y-124815600D01*
X153975234Y-124815600D01*
X152905666Y-125885168D01*
X152757003Y-126107657D01*
X152711331Y-126337266D01*
X152704800Y-126370102D01*
X152704800Y-127671038D01*
X151180800Y-129195038D01*
X151180800Y-129189681D01*
X151258978Y-129111639D01*
X151396543Y-128780346D01*
X151396856Y-128421628D01*
X151259870Y-128090095D01*
X151006439Y-127836222D01*
X150675146Y-127698657D01*
X150316428Y-127698344D01*
X149984895Y-127835330D01*
X149731022Y-128088761D01*
X149593457Y-128420054D01*
X149593144Y-128778772D01*
X149730130Y-129110305D01*
X149809200Y-129189513D01*
X149809200Y-130063740D01*
X146748995Y-133123945D01*
X139722855Y-133123945D01*
X139460411Y-133176148D01*
X139350186Y-133249798D01*
X139237921Y-133324811D01*
X136675066Y-135887666D01*
X136526403Y-136110155D01*
X136496935Y-136258300D01*
X127685800Y-136258300D01*
X127685800Y-132635529D01*
X127785054Y-132676743D01*
X128143772Y-132677056D01*
X128475305Y-132540070D01*
X128554513Y-132461000D01*
X131953000Y-132461000D01*
X132215445Y-132408797D01*
X132437934Y-132260134D01*
X136615521Y-128082547D01*
X136725330Y-128348305D01*
X136978761Y-128602178D01*
X137310054Y-128739743D01*
X137437539Y-128739854D01*
X137538130Y-128983305D01*
X137791561Y-129237178D01*
X138122854Y-129374743D01*
X138481572Y-129375056D01*
X138813105Y-129238070D01*
X139066978Y-128984639D01*
X139204543Y-128653346D01*
X139204856Y-128294628D01*
X139067870Y-127963095D01*
X138988800Y-127883887D01*
X138988800Y-119029681D01*
X139066978Y-118951639D01*
X139204543Y-118620346D01*
X139204856Y-118261628D01*
X139067870Y-117930095D01*
X138955619Y-117817649D01*
X139044268Y-117729000D01*
X141879031Y-117729000D01*
X141906361Y-117756378D01*
X141906361Y-117756378D01*
G37*
X141906361Y-117756378D02*
X142237654Y-117893943D01*
X142596372Y-117894256D01*
X142910684Y-117764385D01*
X142746022Y-117928761D01*
X142608457Y-118260054D01*
X142608144Y-118618772D01*
X142710224Y-118865826D01*
X142572546Y-118808657D01*
X142213828Y-118808344D01*
X141882295Y-118945330D01*
X141628422Y-119198761D01*
X141490857Y-119530054D01*
X141490544Y-119888772D01*
X141627530Y-120220305D01*
X141706600Y-120299513D01*
X141706600Y-126029519D01*
X141628422Y-126107561D01*
X141490857Y-126438854D01*
X141490544Y-126797572D01*
X141627530Y-127129105D01*
X141880961Y-127382978D01*
X142212254Y-127520543D01*
X142570972Y-127520856D01*
X142902505Y-127383870D01*
X143156378Y-127130439D01*
X143293943Y-126799146D01*
X143294256Y-126440428D01*
X143157270Y-126108895D01*
X143078200Y-126029687D01*
X143078200Y-123236496D01*
X143120556Y-123264797D01*
X143383000Y-123317000D01*
X144132255Y-123317000D01*
X144132144Y-123444772D01*
X144224195Y-123667554D01*
X144107057Y-123949654D01*
X144106744Y-124308372D01*
X144243730Y-124639905D01*
X144497161Y-124893778D01*
X144828454Y-125031343D01*
X145187172Y-125031656D01*
X145518705Y-124894670D01*
X145597913Y-124815600D01*
X153975234Y-124815600D01*
X152905666Y-125885168D01*
X152757003Y-126107657D01*
X152711331Y-126337266D01*
X152704800Y-126370102D01*
X152704800Y-127671038D01*
X151180800Y-129195038D01*
X151180800Y-129189681D01*
X151258978Y-129111639D01*
X151396543Y-128780346D01*
X151396856Y-128421628D01*
X151259870Y-128090095D01*
X151006439Y-127836222D01*
X150675146Y-127698657D01*
X150316428Y-127698344D01*
X149984895Y-127835330D01*
X149731022Y-128088761D01*
X149593457Y-128420054D01*
X149593144Y-128778772D01*
X149730130Y-129110305D01*
X149809200Y-129189513D01*
X149809200Y-130063740D01*
X146748995Y-133123945D01*
X139722855Y-133123945D01*
X139460411Y-133176148D01*
X139350186Y-133249798D01*
X139237921Y-133324811D01*
X136675066Y-135887666D01*
X136526403Y-136110155D01*
X136496935Y-136258300D01*
X127685800Y-136258300D01*
X127685800Y-132635529D01*
X127785054Y-132676743D01*
X128143772Y-132677056D01*
X128475305Y-132540070D01*
X128554513Y-132461000D01*
X131953000Y-132461000D01*
X132215445Y-132408797D01*
X132437934Y-132260134D01*
X136615521Y-128082547D01*
X136725330Y-128348305D01*
X136978761Y-128602178D01*
X137310054Y-128739743D01*
X137437539Y-128739854D01*
X137538130Y-128983305D01*
X137791561Y-129237178D01*
X138122854Y-129374743D01*
X138481572Y-129375056D01*
X138813105Y-129238070D01*
X139066978Y-128984639D01*
X139204543Y-128653346D01*
X139204856Y-128294628D01*
X139067870Y-127963095D01*
X138988800Y-127883887D01*
X138988800Y-119029681D01*
X139066978Y-118951639D01*
X139204543Y-118620346D01*
X139204856Y-118261628D01*
X139067870Y-117930095D01*
X138955619Y-117817649D01*
X139044268Y-117729000D01*
X141879031Y-117729000D01*
X141906361Y-117756378D01*
G36*
X171361100Y-136258300D02*
X170822855Y-136258300D01*
X170813597Y-136211755D01*
X170664934Y-135989266D01*
X169595800Y-134920132D01*
X169595800Y-117424205D01*
X169595801Y-117424200D01*
X169543597Y-117161755D01*
X169394934Y-116939266D01*
X168160760Y-115705092D01*
X168160856Y-115594628D01*
X168023870Y-115263095D01*
X167770439Y-115009222D01*
X167439146Y-114871657D01*
X167080428Y-114871344D01*
X166748895Y-115008330D01*
X166495022Y-115261761D01*
X166357457Y-115593054D01*
X166357144Y-115951772D01*
X166494130Y-116283305D01*
X166747561Y-116537178D01*
X167078854Y-116674743D01*
X167190773Y-116674841D01*
X168224200Y-117708268D01*
X168224200Y-121432110D01*
X168151439Y-121359222D01*
X167879468Y-121246290D01*
X167957343Y-121058746D01*
X167957656Y-120700028D01*
X167820670Y-120368495D01*
X167567239Y-120114622D01*
X167255612Y-119985223D01*
X167347743Y-119763346D01*
X167348056Y-119404628D01*
X167211070Y-119073095D01*
X166957639Y-118819222D01*
X166626346Y-118681657D01*
X166547800Y-118681588D01*
X166547800Y-118668800D01*
X166502050Y-118438797D01*
X166495597Y-118406355D01*
X166346934Y-118183866D01*
X165747760Y-117584692D01*
X165747856Y-117474228D01*
X165610870Y-117142695D01*
X165357439Y-116888822D01*
X165026146Y-116751257D01*
X164667428Y-116750944D01*
X164335895Y-116887930D01*
X164082022Y-117141361D01*
X163944457Y-117472654D01*
X163944211Y-117754400D01*
X147451231Y-117754400D01*
X147646635Y-117623835D01*
X148688035Y-116582435D01*
X148850463Y-116339345D01*
X148907500Y-116052600D01*
X148907500Y-109880400D01*
X148850463Y-109593655D01*
X148688035Y-109350565D01*
X148558242Y-109220772D01*
X157848144Y-109220772D01*
X157985130Y-109552305D01*
X158000700Y-109567902D01*
X158000700Y-110929109D01*
X157986022Y-110943761D01*
X157848457Y-111275054D01*
X157848144Y-111633772D01*
X157985130Y-111965305D01*
X158238561Y-112219178D01*
X158569854Y-112356743D01*
X158928572Y-112357056D01*
X159260105Y-112220070D01*
X159513978Y-111966639D01*
X159651543Y-111635346D01*
X159651856Y-111276628D01*
X159514870Y-110945095D01*
X159499300Y-110929498D01*
X159499300Y-109568291D01*
X159513978Y-109553639D01*
X159651543Y-109222346D01*
X159651856Y-108863628D01*
X159514870Y-108532095D01*
X159261439Y-108278222D01*
X158930146Y-108140657D01*
X158571428Y-108140344D01*
X158239895Y-108277330D01*
X157986022Y-108530761D01*
X157848457Y-108862054D01*
X157848144Y-109220772D01*
X148558242Y-109220772D01*
X148221838Y-108884368D01*
X148221856Y-108863628D01*
X148084870Y-108532095D01*
X147831439Y-108278222D01*
X147500146Y-108140657D01*
X147141428Y-108140344D01*
X146809895Y-108277330D01*
X146556022Y-108530761D01*
X146418457Y-108862054D01*
X146418144Y-109220772D01*
X146555130Y-109552305D01*
X146808561Y-109806178D01*
X147139854Y-109943743D01*
X147161892Y-109943762D01*
X147408900Y-110190770D01*
X147408900Y-115742230D01*
X146806430Y-116344700D01*
X146570600Y-116344700D01*
X146570856Y-116051828D01*
X146433870Y-115720295D01*
X146180439Y-115466422D01*
X145849146Y-115328857D01*
X145490428Y-115328544D01*
X145274895Y-115417600D01*
X142481256Y-115417600D01*
X142481456Y-115188228D01*
X142344470Y-114856695D01*
X142091039Y-114602822D01*
X141759746Y-114465257D01*
X141673250Y-114465182D01*
X139956334Y-112748266D01*
X139733845Y-112599603D01*
X139471400Y-112547400D01*
X122148600Y-112547400D01*
X121886156Y-112599603D01*
X121886154Y-112599604D01*
X121886155Y-112599604D01*
X121663666Y-112748266D01*
X116050266Y-118361666D01*
X115901603Y-118584155D01*
X115864093Y-118772734D01*
X115849400Y-118846600D01*
X115849400Y-132613400D01*
X115901603Y-132875845D01*
X116050266Y-133098334D01*
X118694200Y-135742268D01*
X118694200Y-136258300D01*
X115404900Y-136258300D01*
X115404900Y-103073200D01*
X140246100Y-103073200D01*
X140494550Y-104322240D01*
X141202074Y-105381126D01*
X142260960Y-106088650D01*
X143510000Y-106337100D01*
X144759040Y-106088650D01*
X145817926Y-105381126D01*
X146525450Y-104322240D01*
X146773900Y-103073200D01*
X146525450Y-101824160D01*
X145817926Y-100765274D01*
X144759040Y-100057750D01*
X143510000Y-99809300D01*
X142260960Y-100057750D01*
X141202074Y-100765274D01*
X140494550Y-101824160D01*
X140246100Y-103073200D01*
X115404900Y-103073200D01*
X115404900Y-97497900D01*
X171361100Y-97497900D01*
X171361100Y-136258300D01*
X171361100Y-136258300D01*
G37*
X171361100Y-136258300D02*
X170822855Y-136258300D01*
X170813597Y-136211755D01*
X170664934Y-135989266D01*
X169595800Y-134920132D01*
X169595800Y-117424205D01*
X169595801Y-117424200D01*
X169543597Y-117161755D01*
X169394934Y-116939266D01*
X168160760Y-115705092D01*
X168160856Y-115594628D01*
X168023870Y-115263095D01*
X167770439Y-115009222D01*
X167439146Y-114871657D01*
X167080428Y-114871344D01*
X166748895Y-115008330D01*
X166495022Y-115261761D01*
X166357457Y-115593054D01*
X166357144Y-115951772D01*
X166494130Y-116283305D01*
X166747561Y-116537178D01*
X167078854Y-116674743D01*
X167190773Y-116674841D01*
X168224200Y-117708268D01*
X168224200Y-121432110D01*
X168151439Y-121359222D01*
X167879468Y-121246290D01*
X167957343Y-121058746D01*
X167957656Y-120700028D01*
X167820670Y-120368495D01*
X167567239Y-120114622D01*
X167255612Y-119985223D01*
X167347743Y-119763346D01*
X167348056Y-119404628D01*
X167211070Y-119073095D01*
X166957639Y-118819222D01*
X166626346Y-118681657D01*
X166547800Y-118681588D01*
X166547800Y-118668800D01*
X166502050Y-118438797D01*
X166495597Y-118406355D01*
X166346934Y-118183866D01*
X165747760Y-117584692D01*
X165747856Y-117474228D01*
X165610870Y-117142695D01*
X165357439Y-116888822D01*
X165026146Y-116751257D01*
X164667428Y-116750944D01*
X164335895Y-116887930D01*
X164082022Y-117141361D01*
X163944457Y-117472654D01*
X163944211Y-117754400D01*
X147451231Y-117754400D01*
X147646635Y-117623835D01*
X148688035Y-116582435D01*
X148850463Y-116339345D01*
X148907500Y-116052600D01*
X148907500Y-109880400D01*
X148850463Y-109593655D01*
X148688035Y-109350565D01*
X148558242Y-109220772D01*
X157848144Y-109220772D01*
X157985130Y-109552305D01*
X158000700Y-109567902D01*
X158000700Y-110929109D01*
X157986022Y-110943761D01*
X157848457Y-111275054D01*
X157848144Y-111633772D01*
X157985130Y-111965305D01*
X158238561Y-112219178D01*
X158569854Y-112356743D01*
X158928572Y-112357056D01*
X159260105Y-112220070D01*
X159513978Y-111966639D01*
X159651543Y-111635346D01*
X159651856Y-111276628D01*
X159514870Y-110945095D01*
X159499300Y-110929498D01*
X159499300Y-109568291D01*
X159513978Y-109553639D01*
X159651543Y-109222346D01*
X159651856Y-108863628D01*
X159514870Y-108532095D01*
X159261439Y-108278222D01*
X158930146Y-108140657D01*
X158571428Y-108140344D01*
X158239895Y-108277330D01*
X157986022Y-108530761D01*
X157848457Y-108862054D01*
X157848144Y-109220772D01*
X148558242Y-109220772D01*
X148221838Y-108884368D01*
X148221856Y-108863628D01*
X148084870Y-108532095D01*
X147831439Y-108278222D01*
X147500146Y-108140657D01*
X147141428Y-108140344D01*
X146809895Y-108277330D01*
X146556022Y-108530761D01*
X146418457Y-108862054D01*
X146418144Y-109220772D01*
X146555130Y-109552305D01*
X146808561Y-109806178D01*
X147139854Y-109943743D01*
X147161892Y-109943762D01*
X147408900Y-110190770D01*
X147408900Y-115742230D01*
X146806430Y-116344700D01*
X146570600Y-116344700D01*
X146570856Y-116051828D01*
X146433870Y-115720295D01*
X146180439Y-115466422D01*
X145849146Y-115328857D01*
X145490428Y-115328544D01*
X145274895Y-115417600D01*
X142481256Y-115417600D01*
X142481456Y-115188228D01*
X142344470Y-114856695D01*
X142091039Y-114602822D01*
X141759746Y-114465257D01*
X141673250Y-114465182D01*
X139956334Y-112748266D01*
X139733845Y-112599603D01*
X139471400Y-112547400D01*
X122148600Y-112547400D01*
X121886156Y-112599603D01*
X121886154Y-112599604D01*
X121886155Y-112599604D01*
X121663666Y-112748266D01*
X116050266Y-118361666D01*
X115901603Y-118584155D01*
X115864093Y-118772734D01*
X115849400Y-118846600D01*
X115849400Y-132613400D01*
X115901603Y-132875845D01*
X116050266Y-133098334D01*
X118694200Y-135742268D01*
X118694200Y-136258300D01*
X115404900Y-136258300D01*
X115404900Y-103073200D01*
X140246100Y-103073200D01*
X140494550Y-104322240D01*
X141202074Y-105381126D01*
X142260960Y-106088650D01*
X143510000Y-106337100D01*
X144759040Y-106088650D01*
X145817926Y-105381126D01*
X146525450Y-104322240D01*
X146773900Y-103073200D01*
X146525450Y-101824160D01*
X145817926Y-100765274D01*
X144759040Y-100057750D01*
X143510000Y-99809300D01*
X142260960Y-100057750D01*
X141202074Y-100765274D01*
X140494550Y-101824160D01*
X140246100Y-103073200D01*
X115404900Y-103073200D01*
X115404900Y-97497900D01*
X171361100Y-97497900D01*
X171361100Y-136258300D01*
M02*
