G04 #@! TF.FileFunction,Copper,L1,Top,Signal*
%FSLAX46Y46*%
G04 Gerber Fmt 4.6, Leading zero omitted, Abs format (unit mm)*
G04 Created by KiCad (PCBNEW 4.0.7-e2-6376~58~ubuntu16.04.1) date Wed Mar 28 10:52:48 2018*
%MOMM*%
%LPD*%
G01*
G04 APERTURE LIST*
%ADD10C,0.203200*%
%ADD11R,1.000000X0.800000*%
%ADD12R,0.800000X1.000000*%
%ADD13R,0.800000X0.800000*%
%ADD14R,2.286000X0.762000*%
%ADD15R,0.762000X2.286000*%
%ADD16R,2.000000X0.500000*%
%ADD17R,1.600000X1.800000*%
%ADD18R,1.270000X8.001000*%
%ADD19C,0.609600*%
%ADD20C,0.304800*%
%ADD21C,0.635000*%
%ADD22C,0.177800*%
G04 APERTURE END LIST*
D10*
D11*
X137160000Y-132730200D03*
X137160000Y-134630200D03*
X134620000Y-132730200D03*
X134620000Y-134630200D03*
X139700000Y-134630200D03*
X139700000Y-132730200D03*
X156972000Y-112410200D03*
X156972000Y-114310200D03*
X158750000Y-114310200D03*
X158750000Y-112410200D03*
X162306000Y-114310200D03*
X162306000Y-112410200D03*
X160528000Y-114310200D03*
X160528000Y-112410200D03*
D12*
X150175000Y-114249200D03*
X148275000Y-114249200D03*
X150175000Y-112598200D03*
X148275000Y-112598200D03*
X117414000Y-131140200D03*
X119314000Y-131140200D03*
X136591000Y-114503200D03*
X138491000Y-114503200D03*
D11*
X169672000Y-124724200D03*
X169672000Y-122824200D03*
X120523000Y-123454200D03*
X120523000Y-121554200D03*
D13*
X154632000Y-112405200D03*
X154632000Y-110505200D03*
X152200000Y-111455200D03*
D14*
X150495000Y-123393200D03*
X150495000Y-124663200D03*
X150495000Y-125933200D03*
X150495000Y-127203200D03*
D15*
X152400000Y-129108200D03*
X153670000Y-129108200D03*
X154940000Y-129108200D03*
X156210000Y-129108200D03*
X157480000Y-129108200D03*
X158750000Y-129108200D03*
X160020000Y-129108200D03*
X161290000Y-129108200D03*
X162560000Y-129108200D03*
D14*
X164465000Y-127203200D03*
X164465000Y-125933200D03*
X164465000Y-124663200D03*
X164465000Y-123393200D03*
X164465000Y-122123200D03*
X164465000Y-120853200D03*
X164465000Y-119583200D03*
D15*
X162560000Y-117678200D03*
X161290000Y-117678200D03*
X160020000Y-117678200D03*
X158750000Y-117678200D03*
X157480000Y-117678200D03*
X156210000Y-117678200D03*
X154940000Y-117678200D03*
X153670000Y-117678200D03*
X152400000Y-117678200D03*
D14*
X150495000Y-119583200D03*
X150495000Y-120853200D03*
X150495000Y-122123200D03*
D16*
X134589000Y-117170200D03*
X134589000Y-118440200D03*
X134589000Y-119710200D03*
X134589000Y-120980200D03*
X134589000Y-122250200D03*
X134589000Y-123520200D03*
X134589000Y-124790200D03*
X134589000Y-126060200D03*
X140589000Y-126060200D03*
X140589000Y-124790200D03*
X140589000Y-123520200D03*
X140589000Y-122250200D03*
X140589000Y-120980200D03*
X140589000Y-119710200D03*
X140589000Y-118440200D03*
X140589000Y-117170200D03*
X123286000Y-118440200D03*
X123286000Y-119710200D03*
X123286000Y-120980200D03*
X123286000Y-122250200D03*
X123286000Y-123520200D03*
X123286000Y-124790200D03*
X123286000Y-126060200D03*
X129286000Y-126060200D03*
X129286000Y-124790200D03*
X129286000Y-123520200D03*
X129286000Y-122250200D03*
X129286000Y-120980200D03*
X129286000Y-119710200D03*
X129286000Y-118440200D03*
D17*
X119767000Y-133553200D03*
X116967000Y-133553200D03*
D18*
X116840000Y-141224000D03*
X119380000Y-141224000D03*
X121920000Y-141224000D03*
X124460000Y-141224000D03*
X127000000Y-141224000D03*
X129540000Y-141224000D03*
X132080000Y-141224000D03*
X134620000Y-141224000D03*
X137160000Y-141224000D03*
X139700000Y-141224000D03*
X142240000Y-141224000D03*
X144780000Y-141224000D03*
X147320000Y-141224000D03*
X149860000Y-141224000D03*
X152400000Y-141224000D03*
X154940000Y-141224000D03*
X157480000Y-141224000D03*
X160020000Y-141224000D03*
X162560000Y-141224000D03*
X165100000Y-141224000D03*
X167640000Y-141224000D03*
X170180000Y-141224000D03*
D12*
X146177000Y-122250200D03*
X144277000Y-122250200D03*
D19*
X158750000Y-126949200D03*
X117729000Y-135585200D03*
X115951000Y-135585200D03*
X118364000Y-129870200D03*
X117475000Y-129870200D03*
X120650000Y-129870200D03*
X118364000Y-128854200D03*
X117475000Y-128854200D03*
X120650000Y-128854200D03*
X118364000Y-127838200D03*
X117475000Y-127838200D03*
X120650000Y-127838200D03*
X115951000Y-129870200D03*
X115951000Y-128854200D03*
X115951000Y-127838200D03*
X116840000Y-135585200D03*
X170180000Y-133045200D03*
X170180000Y-134061200D03*
X135305800Y-114503200D03*
X170180000Y-135077200D03*
X118999000Y-123520200D03*
X130937000Y-120980200D03*
X134620000Y-126822200D03*
X129286000Y-126822200D03*
X135890000Y-132730200D03*
X145084800Y-117094000D03*
X147320000Y-109042200D03*
X158750000Y-109042200D03*
X158750000Y-111455200D03*
X145669000Y-116230400D03*
X127965200Y-131775200D03*
X142417800Y-116992400D03*
X137490200Y-127838200D03*
X142392400Y-126619000D03*
X149860000Y-134061200D03*
X142392400Y-119710200D03*
X164846000Y-117652800D03*
X149860000Y-135966200D03*
X152400000Y-135966200D03*
X166446200Y-119583200D03*
X167055800Y-120878600D03*
X154940000Y-135966200D03*
X143002000Y-120980200D03*
X161925000Y-122123200D03*
X167640000Y-122123200D03*
X157480000Y-135839200D03*
X145034000Y-123266200D03*
X161925000Y-123393200D03*
X168275000Y-123393200D03*
X160020000Y-135839200D03*
X161950400Y-125933200D03*
X145008600Y-124129800D03*
X166878000Y-133172200D03*
X162560000Y-135839200D03*
X144145000Y-119075200D03*
X162560000Y-127203200D03*
X166878000Y-134061200D03*
X165100000Y-135839200D03*
X143510000Y-118440200D03*
X163677600Y-129108200D03*
X132486400Y-117170200D03*
X125095000Y-129489200D03*
X150495000Y-128600200D03*
X157480000Y-125018800D03*
X160020000Y-125628400D03*
X156210000Y-126212600D03*
X154914600Y-126873000D03*
X148971000Y-135966200D03*
X151511000Y-135966200D03*
X154051000Y-135966200D03*
X156591000Y-135839200D03*
X159131000Y-135839200D03*
X161671000Y-135839200D03*
X164211000Y-135839200D03*
X166878000Y-135839200D03*
X167259000Y-115773200D03*
X141579600Y-115366800D03*
X138303000Y-128473200D03*
X138303000Y-118440200D03*
X148463000Y-119583200D03*
X147320000Y-121742200D03*
D20*
X116840000Y-135585200D02*
X115951000Y-135585200D01*
X117475000Y-129870200D02*
X115951000Y-129870200D01*
X117475000Y-128854200D02*
X115951000Y-128854200D01*
X117475000Y-127838200D02*
X115951000Y-127838200D01*
X117475000Y-127838200D02*
X117475000Y-128854200D01*
X117475000Y-128854200D02*
X117475000Y-129870200D01*
X117414000Y-129931200D02*
X117475000Y-129870200D01*
X117414000Y-129931200D02*
X117414000Y-131140200D01*
X136591000Y-114503200D02*
X135305800Y-114503200D01*
X170180000Y-141224000D02*
X170180000Y-135077200D01*
X170180000Y-135077200D02*
X170180000Y-134061200D01*
X170180000Y-134061200D02*
X170180000Y-133045200D01*
X170180000Y-133045200D02*
X170180000Y-125232200D01*
X170180000Y-125232200D02*
X169672000Y-124724200D01*
X164465000Y-124663200D02*
X169611000Y-124663200D01*
X169611000Y-124663200D02*
X169672000Y-124724200D01*
X120523000Y-123454200D02*
X119065000Y-123454200D01*
X119065000Y-123454200D02*
X118999000Y-123520200D01*
X123286000Y-126060200D02*
X120904000Y-126060200D01*
X120523000Y-125679200D02*
X120523000Y-123454200D01*
X120904000Y-126060200D02*
X120523000Y-125679200D01*
X129286000Y-120980200D02*
X130937000Y-120980200D01*
X129286000Y-120980200D02*
X129286000Y-122250200D01*
X134589000Y-126060200D02*
X134589000Y-126791200D01*
X134589000Y-126791200D02*
X134620000Y-126822200D01*
X129286000Y-126060200D02*
X129286000Y-126822200D01*
X129286000Y-124790200D02*
X129286000Y-126060200D01*
X137160000Y-132730200D02*
X135890000Y-132730200D01*
X135890000Y-132730200D02*
X134620000Y-132730200D01*
X123220000Y-123454200D02*
X123286000Y-123520200D01*
X123286000Y-123520200D02*
X123286000Y-126060200D01*
X117414000Y-131140200D02*
X117414000Y-133106200D01*
X117414000Y-133106200D02*
X116967000Y-133553200D01*
X116840000Y-141224000D02*
X116840000Y-135585200D01*
X116840000Y-135585200D02*
X116840000Y-133680200D01*
X116840000Y-133680200D02*
X116967000Y-133553200D01*
X150495000Y-122123200D02*
X148945600Y-122123200D01*
X145084800Y-118262400D02*
X145084800Y-117094000D01*
X148945600Y-122123200D02*
X145084800Y-118262400D01*
X169672000Y-122824200D02*
X169672000Y-110820200D01*
X167894000Y-109042200D02*
X165735000Y-109042200D01*
X169672000Y-110820200D02*
X167894000Y-109042200D01*
X158750000Y-112410200D02*
X158750000Y-111455200D01*
X140589000Y-117170200D02*
X140589000Y-114503200D01*
X138491000Y-114503200D02*
X140589000Y-114503200D01*
X140589000Y-114503200D02*
X141833600Y-114503200D01*
X141833600Y-114503200D02*
X141859000Y-114503200D01*
X141859000Y-114503200D02*
X147320000Y-109042200D01*
X147320000Y-109042200D02*
X148463000Y-109042200D01*
X148463000Y-109042200D02*
X158750000Y-109042200D01*
X137094000Y-115900200D02*
X138491000Y-114503200D01*
X129286000Y-118440200D02*
X129286000Y-115900200D01*
X158750000Y-109042200D02*
X165735000Y-109042200D01*
X138491000Y-114503200D02*
X138491000Y-114403200D01*
X120523000Y-121554200D02*
X120523000Y-116916200D01*
X121539000Y-115900200D02*
X129286000Y-115900200D01*
X129286000Y-115900200D02*
X137094000Y-115900200D01*
X120523000Y-116916200D02*
X121539000Y-115900200D01*
X119314000Y-131140200D02*
X119314000Y-125486200D01*
X118806000Y-121554200D02*
X120523000Y-121554200D01*
X117856000Y-122504200D02*
X118806000Y-121554200D01*
X117856000Y-124028200D02*
X117856000Y-122504200D01*
X119314000Y-125486200D02*
X117856000Y-124028200D01*
D21*
X121920000Y-141224000D02*
X119380000Y-141224000D01*
D20*
X119314000Y-131140200D02*
X119314000Y-133100200D01*
X119314000Y-133100200D02*
X119767000Y-133553200D01*
X119380000Y-141224000D02*
X119380000Y-133940200D01*
X119380000Y-133940200D02*
X119767000Y-133553200D01*
D22*
X150495000Y-120853200D02*
X148640800Y-120853200D01*
X148640800Y-120853200D02*
X145669000Y-117881400D01*
X145669000Y-117881400D02*
X145669000Y-116230400D01*
X127000000Y-132740400D02*
X127000000Y-141224000D01*
X127965200Y-131775200D02*
X127000000Y-132740400D01*
X132080000Y-141224000D02*
X132080000Y-134823200D01*
X124714000Y-119710200D02*
X123286000Y-119710200D01*
X125450602Y-120446802D02*
X124714000Y-119710200D01*
X125450602Y-128193802D02*
X125450602Y-120446802D01*
X132080000Y-134823200D02*
X125450602Y-128193802D01*
X139700000Y-134630200D02*
X137160000Y-134630200D01*
X137160000Y-141224000D02*
X137160000Y-134630200D01*
X142417800Y-116992400D02*
X145694400Y-113715800D01*
X146862800Y-112547400D02*
X148224200Y-112547400D01*
X146380200Y-113030000D02*
X146862800Y-112547400D01*
X145694400Y-113715800D02*
X146380200Y-113030000D01*
X148224200Y-112547400D02*
X148275000Y-112598200D01*
X148275000Y-112760800D02*
X148275000Y-112598200D01*
X142240000Y-129743200D02*
X142240000Y-141224000D01*
X140335000Y-127838200D02*
X142240000Y-129743200D01*
X137490200Y-127838200D02*
X140335000Y-127838200D01*
X160528000Y-112410200D02*
X160528000Y-111876802D01*
X155829000Y-111201200D02*
X155829000Y-111208200D01*
X156169398Y-110860802D02*
X155829000Y-111201200D01*
X159512000Y-110860802D02*
X156169398Y-110860802D01*
X160528000Y-111876802D02*
X159512000Y-110860802D01*
X148275000Y-112598200D02*
X148275000Y-111643200D01*
X152781000Y-110439200D02*
X153162000Y-110820200D01*
X149479000Y-110439200D02*
X152781000Y-110439200D01*
X148275000Y-111643200D02*
X149479000Y-110439200D01*
X154632000Y-112405200D02*
X153858000Y-112405200D01*
X153670000Y-111328200D02*
X153162000Y-110820200D01*
X153162000Y-110820200D02*
X153035000Y-110693200D01*
X153670000Y-112217200D02*
X153670000Y-111328200D01*
X153858000Y-112405200D02*
X153670000Y-112217200D01*
X154632000Y-112163200D02*
X154632000Y-112405200D01*
X154632000Y-112405200D02*
X154620000Y-112405200D01*
X155829000Y-111208200D02*
X154632000Y-112405200D01*
X149834600Y-134061200D02*
X149860000Y-134061200D01*
X149834600Y-134061200D02*
X142392400Y-126619000D01*
X140589000Y-119710200D02*
X142392400Y-119710200D01*
X149860000Y-141224000D02*
X149860000Y-135966200D01*
X164820600Y-117678200D02*
X162560000Y-117678200D01*
X164846000Y-117652800D02*
X164820600Y-117678200D01*
X152400000Y-141224000D02*
X152400000Y-135966200D01*
X166446200Y-119583200D02*
X164465000Y-119583200D01*
X167030400Y-120853200D02*
X164465000Y-120853200D01*
X167055800Y-120878600D02*
X167030400Y-120853200D01*
X154940000Y-141224000D02*
X154940000Y-135966200D01*
X143002000Y-120980200D02*
X140589000Y-120980200D01*
X164465000Y-122123200D02*
X161925000Y-122123200D01*
X167640000Y-122123200D02*
X164465000Y-122123200D01*
X157480000Y-141224000D02*
X157480000Y-135839200D01*
X145034000Y-123266200D02*
X144068800Y-123266200D01*
X143814800Y-123520200D02*
X142773400Y-123520200D01*
X144068800Y-123266200D02*
X143814800Y-123520200D01*
X164465000Y-123393200D02*
X161925000Y-123393200D01*
X140589000Y-123520200D02*
X142773400Y-123520200D01*
X166243000Y-123393200D02*
X168275000Y-123393200D01*
X160020000Y-141224000D02*
X160020000Y-135839200D01*
X166243000Y-123393200D02*
X164465000Y-123393200D01*
X164465000Y-125933200D02*
X161950400Y-125933200D01*
X144983200Y-124155200D02*
X143179800Y-124155200D01*
X145008600Y-124129800D02*
X144983200Y-124155200D01*
X134589000Y-123520200D02*
X137922000Y-123520200D01*
X137922000Y-123520200D02*
X138557000Y-124155200D01*
X138557000Y-124155200D02*
X143179800Y-124155200D01*
X162560000Y-141224000D02*
X162560000Y-135839200D01*
X165862000Y-125933200D02*
X164465000Y-125933200D01*
X166878000Y-126949200D02*
X165862000Y-125933200D01*
X166878000Y-133172200D02*
X166878000Y-126949200D01*
X143383000Y-121615200D02*
X144145000Y-120853200D01*
X144145000Y-120853200D02*
X144145000Y-119075200D01*
X142748000Y-121615200D02*
X143078200Y-121615200D01*
X138049000Y-121615200D02*
X142748000Y-121615200D01*
X142748000Y-121615200D02*
X143383000Y-121615200D01*
X164465000Y-127203200D02*
X162560000Y-127203200D01*
X134589000Y-120980200D02*
X137414000Y-120980200D01*
X137414000Y-120980200D02*
X138049000Y-121615200D01*
X165100000Y-141224000D02*
X165100000Y-135839200D01*
X164465000Y-131648200D02*
X164465000Y-127203200D01*
X166878000Y-134061200D02*
X164465000Y-131648200D01*
X143510000Y-119456200D02*
X143510000Y-118440200D01*
X142621000Y-120345200D02*
X143510000Y-119456200D01*
X141732000Y-120345200D02*
X142621000Y-120345200D01*
X162560000Y-129108200D02*
X163677600Y-129108200D01*
X137922000Y-120345200D02*
X141732000Y-120345200D01*
X137287000Y-119710200D02*
X137922000Y-120345200D01*
X134589000Y-119710200D02*
X137287000Y-119710200D01*
X162560000Y-129108200D02*
X162560000Y-130632200D01*
X167640000Y-135712200D02*
X167640000Y-141224000D01*
X162560000Y-130632200D02*
X167640000Y-135712200D01*
X134589000Y-117170200D02*
X132486400Y-117170200D01*
X124841000Y-120980200D02*
X123286000Y-120980200D01*
X125095000Y-121234200D02*
X124841000Y-120980200D01*
X125095000Y-123266200D02*
X125095000Y-121234200D01*
X125095000Y-129489200D02*
X125095000Y-123266200D01*
X150495000Y-128600200D02*
X150495000Y-127203200D01*
X157480000Y-125018800D02*
X157480000Y-117678200D01*
X160020000Y-125628400D02*
X160020000Y-117678200D01*
X156210000Y-126212600D02*
X156210000Y-124180600D01*
X156210000Y-124180600D02*
X156210000Y-117678200D01*
X154940000Y-124256800D02*
X154940000Y-126847600D01*
X154940000Y-126847600D02*
X154914600Y-126873000D01*
X154940000Y-124256800D02*
X154940000Y-117678200D01*
X152400000Y-132537200D02*
X152400000Y-129108200D01*
X148971000Y-135966200D02*
X152400000Y-132537200D01*
X153670000Y-133807200D02*
X153670000Y-129108200D01*
X151511000Y-135966200D02*
X153670000Y-133807200D01*
X154940000Y-135077200D02*
X154940000Y-129108200D01*
X154051000Y-135966200D02*
X154940000Y-135077200D01*
X156210000Y-135458200D02*
X156210000Y-129108200D01*
X156591000Y-135839200D02*
X156210000Y-135458200D01*
X157480000Y-134188200D02*
X157480000Y-129108200D01*
X159131000Y-135839200D02*
X157480000Y-134188200D01*
X158750000Y-129108200D02*
X158750000Y-132918200D01*
X158750000Y-132918200D02*
X161671000Y-135839200D01*
X160020000Y-131648200D02*
X160020000Y-129108200D01*
X164211000Y-135839200D02*
X160020000Y-131648200D01*
X166878000Y-135839200D02*
X162560000Y-131521200D01*
X161290000Y-130886200D02*
X161290000Y-130378200D01*
X161925000Y-131521200D02*
X161290000Y-130886200D01*
X162560000Y-131521200D02*
X161925000Y-131521200D01*
X161290000Y-129108200D02*
X161290000Y-130378200D01*
X161290000Y-117678200D02*
X161290000Y-116154200D01*
X161671000Y-115773200D02*
X167259000Y-115773200D01*
X161290000Y-116154200D02*
X161671000Y-115773200D01*
X134620000Y-141224000D02*
X134620000Y-134630200D01*
X141579600Y-115366800D02*
X142722600Y-115366800D01*
X142722600Y-115366800D02*
X148615400Y-109474000D01*
X148615400Y-109474000D02*
X153023000Y-109474000D01*
X153023000Y-109474000D02*
X154054200Y-110505200D01*
X154054200Y-110505200D02*
X154632000Y-110505200D01*
X154632000Y-110505200D02*
X161610000Y-110505200D01*
X162306000Y-111201200D02*
X162306000Y-112410200D01*
X161610000Y-110505200D02*
X162306000Y-111201200D01*
X150175000Y-112598200D02*
X150175000Y-114249200D01*
X153670000Y-117678200D02*
X153670000Y-115265200D01*
X152654000Y-114249200D02*
X150175000Y-114249200D01*
X153670000Y-115265200D02*
X152654000Y-114249200D01*
X148275000Y-114249200D02*
X146024600Y-114249200D01*
X142468600Y-117805200D02*
X141681200Y-117805200D01*
X146024600Y-114249200D02*
X142468600Y-117805200D01*
X134589000Y-118440200D02*
X136906000Y-118440200D01*
X137541000Y-117805200D02*
X141681200Y-117805200D01*
X136906000Y-118440200D02*
X137541000Y-117805200D01*
X162306000Y-114310200D02*
X160528000Y-114310200D01*
X160528000Y-114310200D02*
X158750000Y-114310200D01*
X158750000Y-117678200D02*
X158750000Y-114310200D01*
X158750000Y-114310200D02*
X156972000Y-114310200D01*
X139700000Y-132730200D02*
X139700000Y-129870200D01*
X139700000Y-129870200D02*
X138303000Y-128473200D01*
X140589000Y-118440200D02*
X138303000Y-118440200D01*
X139639000Y-132730200D02*
X139700000Y-132730200D01*
X152400000Y-117678200D02*
X152400000Y-116154200D01*
X141935200Y-119075200D02*
X140665200Y-119075200D01*
X145592800Y-115417600D02*
X141935200Y-119075200D01*
X151663400Y-115417600D02*
X145592800Y-115417600D01*
X152400000Y-116154200D02*
X151663400Y-115417600D01*
X132842000Y-122250200D02*
X134589000Y-122250200D01*
X132334000Y-121742200D02*
X132842000Y-122250200D01*
X132334000Y-119583200D02*
X132334000Y-121742200D01*
X132842000Y-119075200D02*
X132334000Y-119583200D01*
X140665200Y-119075200D02*
X132842000Y-119075200D01*
X134589000Y-124790200D02*
X136525000Y-124790200D01*
X146812000Y-125933200D02*
X150495000Y-125933200D01*
X146304000Y-125425200D02*
X146812000Y-125933200D01*
X137160000Y-125425200D02*
X146304000Y-125425200D01*
X136525000Y-124790200D02*
X137160000Y-125425200D01*
X140589000Y-124790200D02*
X150368000Y-124790200D01*
X150368000Y-124790200D02*
X150495000Y-124663200D01*
X156972000Y-112410200D02*
X156144000Y-112410200D01*
X152200000Y-112271200D02*
X152200000Y-111455200D01*
X153289000Y-113360200D02*
X152200000Y-112271200D01*
X155194000Y-113360200D02*
X153289000Y-113360200D01*
X156144000Y-112410200D02*
X155194000Y-113360200D01*
X140589000Y-126060200D02*
X137033000Y-126060200D01*
X125095000Y-118440200D02*
X123286000Y-118440200D01*
X125857000Y-119202200D02*
X125095000Y-118440200D01*
X125857000Y-123062996D02*
X125857000Y-119202200D01*
X126949204Y-124155200D02*
X125857000Y-123062996D01*
X130937000Y-124155200D02*
X126949204Y-124155200D01*
X132207000Y-125425200D02*
X130937000Y-124155200D01*
X136398000Y-125425200D02*
X132207000Y-125425200D01*
X137033000Y-126060200D02*
X136398000Y-125425200D01*
X148463000Y-119583200D02*
X150495000Y-119583200D01*
X146177000Y-122250200D02*
X146812000Y-122250200D01*
X146812000Y-122250200D02*
X147320000Y-121742200D01*
X140589000Y-122250200D02*
X144277000Y-122250200D01*
G36*
X171361100Y-136258300D02*
X168325800Y-136258300D01*
X168325800Y-135712200D01*
X168298859Y-135576756D01*
X168273597Y-135449755D01*
X168124934Y-135227266D01*
X167556068Y-134658400D01*
X167641978Y-134572639D01*
X167779543Y-134241346D01*
X167779856Y-133882628D01*
X167669876Y-133616454D01*
X167779543Y-133352346D01*
X167779856Y-132993628D01*
X167642870Y-132662095D01*
X167563800Y-132582887D01*
X167563800Y-126949200D01*
X167550323Y-126881445D01*
X167511597Y-126686755D01*
X167362934Y-126464266D01*
X166346934Y-125448266D01*
X166175480Y-125333704D01*
X166174972Y-125331002D01*
X166150826Y-125293478D01*
X166204900Y-125162931D01*
X166204900Y-124936925D01*
X168575100Y-124936925D01*
X168575100Y-125242931D01*
X168665973Y-125462317D01*
X168833883Y-125630228D01*
X169053269Y-125721100D01*
X169459275Y-125721100D01*
X169608500Y-125571875D01*
X169608500Y-124787700D01*
X169735500Y-124787700D01*
X169735500Y-125571875D01*
X169884725Y-125721100D01*
X170290731Y-125721100D01*
X170510117Y-125630228D01*
X170678027Y-125462317D01*
X170768900Y-125242931D01*
X170768900Y-124936925D01*
X170619675Y-124787700D01*
X169735500Y-124787700D01*
X169608500Y-124787700D01*
X168724325Y-124787700D01*
X168575100Y-124936925D01*
X166204900Y-124936925D01*
X166204900Y-124875925D01*
X166055675Y-124726700D01*
X164528500Y-124726700D01*
X164528500Y-124746700D01*
X164401500Y-124746700D01*
X164401500Y-124726700D01*
X162874325Y-124726700D01*
X162725100Y-124875925D01*
X162725100Y-125162931D01*
X162760088Y-125247400D01*
X162539881Y-125247400D01*
X162461839Y-125169222D01*
X162130546Y-125031657D01*
X161771828Y-125031344D01*
X161440295Y-125168330D01*
X161186422Y-125421761D01*
X161048857Y-125753054D01*
X161048544Y-126111772D01*
X161185530Y-126443305D01*
X161438961Y-126697178D01*
X161741592Y-126822842D01*
X161658457Y-127023054D01*
X161658166Y-127356607D01*
X160909000Y-127356607D01*
X160687802Y-127398228D01*
X160657270Y-127417875D01*
X160637777Y-127404556D01*
X160401000Y-127356607D01*
X159639000Y-127356607D01*
X159550241Y-127373308D01*
X159651543Y-127129346D01*
X159651856Y-126770628D01*
X159514870Y-126439095D01*
X159261439Y-126185222D01*
X158930146Y-126047657D01*
X158571428Y-126047344D01*
X158239895Y-126184330D01*
X157986022Y-126437761D01*
X157848457Y-126769054D01*
X157848144Y-127127772D01*
X157950156Y-127374662D01*
X157861000Y-127356607D01*
X157099000Y-127356607D01*
X156877802Y-127398228D01*
X156847270Y-127417875D01*
X156827777Y-127404556D01*
X156591000Y-127356607D01*
X155829000Y-127356607D01*
X155677996Y-127385020D01*
X155678578Y-127384439D01*
X155816143Y-127053146D01*
X155816167Y-127025412D01*
X156029854Y-127114143D01*
X156388572Y-127114456D01*
X156720105Y-126977470D01*
X156973978Y-126724039D01*
X157111543Y-126392746D01*
X157111856Y-126034028D01*
X157016219Y-125802567D01*
X157299854Y-125920343D01*
X157658572Y-125920656D01*
X157990105Y-125783670D01*
X158243978Y-125530239D01*
X158381543Y-125198946D01*
X158381856Y-124840228D01*
X158244870Y-124508695D01*
X158165800Y-124429487D01*
X158165800Y-119388644D01*
X158369000Y-119429793D01*
X159131000Y-119429793D01*
X159334200Y-119391559D01*
X159334200Y-125038919D01*
X159256022Y-125116961D01*
X159118457Y-125448254D01*
X159118144Y-125806972D01*
X159255130Y-126138505D01*
X159508561Y-126392378D01*
X159839854Y-126529943D01*
X160198572Y-126530256D01*
X160530105Y-126393270D01*
X160783978Y-126139839D01*
X160921543Y-125808546D01*
X160921856Y-125449828D01*
X160784870Y-125118295D01*
X160705800Y-125039087D01*
X160705800Y-119388644D01*
X160909000Y-119429793D01*
X161671000Y-119429793D01*
X161892198Y-119388172D01*
X161922730Y-119368525D01*
X161942223Y-119381844D01*
X162179000Y-119429793D01*
X162713407Y-119429793D01*
X162713407Y-119964200D01*
X162755028Y-120185398D01*
X162774675Y-120215930D01*
X162761356Y-120235423D01*
X162713407Y-120472200D01*
X162713407Y-121234200D01*
X162751641Y-121437400D01*
X162514481Y-121437400D01*
X162436439Y-121359222D01*
X162105146Y-121221657D01*
X161746428Y-121221344D01*
X161414895Y-121358330D01*
X161161022Y-121611761D01*
X161023457Y-121943054D01*
X161023144Y-122301772D01*
X161160130Y-122633305D01*
X161284803Y-122758195D01*
X161161022Y-122881761D01*
X161023457Y-123213054D01*
X161023144Y-123571772D01*
X161160130Y-123903305D01*
X161413561Y-124157178D01*
X161744854Y-124294743D01*
X162103572Y-124295056D01*
X162435105Y-124158070D01*
X162514313Y-124079000D01*
X162760088Y-124079000D01*
X162725100Y-124163469D01*
X162725100Y-124450475D01*
X162874325Y-124599700D01*
X164401500Y-124599700D01*
X164401500Y-124579700D01*
X164528500Y-124579700D01*
X164528500Y-124599700D01*
X166055675Y-124599700D01*
X166204900Y-124450475D01*
X166204900Y-124163469D01*
X166169912Y-124079000D01*
X167685519Y-124079000D01*
X167763561Y-124157178D01*
X168094854Y-124294743D01*
X168453572Y-124295056D01*
X168575100Y-124244842D01*
X168575100Y-124511475D01*
X168724325Y-124660700D01*
X169608500Y-124660700D01*
X169608500Y-124640700D01*
X169735500Y-124640700D01*
X169735500Y-124660700D01*
X170619675Y-124660700D01*
X170768900Y-124511475D01*
X170768900Y-124205469D01*
X170678027Y-123986083D01*
X170510117Y-123818172D01*
X170413458Y-123778135D01*
X170596354Y-123660444D01*
X170732644Y-123460977D01*
X170780593Y-123224200D01*
X170780593Y-122424200D01*
X170738972Y-122203002D01*
X170608244Y-121999846D01*
X170421300Y-121872113D01*
X170421300Y-110820200D01*
X170364263Y-110533455D01*
X170201835Y-110290365D01*
X168423835Y-108512365D01*
X168180745Y-108349937D01*
X167894000Y-108292900D01*
X159276091Y-108292900D01*
X159261439Y-108278222D01*
X158930146Y-108140657D01*
X158571428Y-108140344D01*
X158239895Y-108277330D01*
X158224298Y-108292900D01*
X147846091Y-108292900D01*
X147831439Y-108278222D01*
X147500146Y-108140657D01*
X147141428Y-108140344D01*
X146809895Y-108277330D01*
X146556022Y-108530761D01*
X146418457Y-108862054D01*
X146418438Y-108884092D01*
X141548630Y-113753900D01*
X139439889Y-113753900D01*
X139327244Y-113578846D01*
X139127777Y-113442556D01*
X138891000Y-113394607D01*
X138091000Y-113394607D01*
X137869802Y-113436228D01*
X137666646Y-113566956D01*
X137535740Y-113758543D01*
X137497028Y-113665083D01*
X137329117Y-113497173D01*
X137109731Y-113406300D01*
X136803725Y-113406300D01*
X136654500Y-113555525D01*
X136654500Y-114439700D01*
X136674500Y-114439700D01*
X136674500Y-114566700D01*
X136654500Y-114566700D01*
X136654500Y-114586700D01*
X136527500Y-114586700D01*
X136527500Y-114566700D01*
X135743325Y-114566700D01*
X135594100Y-114715925D01*
X135594100Y-115121931D01*
X135606099Y-115150900D01*
X121539000Y-115150900D01*
X121252255Y-115207937D01*
X121009165Y-115370365D01*
X119993165Y-116386365D01*
X119830737Y-116629455D01*
X119773700Y-116916200D01*
X119773700Y-120605311D01*
X119598646Y-120717956D01*
X119539240Y-120804900D01*
X118806000Y-120804900D01*
X118519255Y-120861937D01*
X118340163Y-120981603D01*
X118276165Y-121024365D01*
X117326165Y-121974365D01*
X117163737Y-122217455D01*
X117106700Y-122504200D01*
X117106700Y-124028200D01*
X117163737Y-124314945D01*
X117326165Y-124558035D01*
X118564700Y-125796570D01*
X118564700Y-130155660D01*
X118489646Y-130203956D01*
X118358740Y-130395543D01*
X118320028Y-130302083D01*
X118152117Y-130134173D01*
X117932731Y-130043300D01*
X117626725Y-130043300D01*
X117477500Y-130192525D01*
X117477500Y-131076700D01*
X117497500Y-131076700D01*
X117497500Y-131203700D01*
X117477500Y-131203700D01*
X117477500Y-131223700D01*
X117350500Y-131223700D01*
X117350500Y-131203700D01*
X116566325Y-131203700D01*
X116417100Y-131352925D01*
X116417100Y-131758931D01*
X116507972Y-131978317D01*
X116585955Y-132056300D01*
X116048269Y-132056300D01*
X115828883Y-132147173D01*
X115660972Y-132315083D01*
X115570100Y-132534469D01*
X115570100Y-133340475D01*
X115719325Y-133489700D01*
X116903500Y-133489700D01*
X116903500Y-133469700D01*
X117030500Y-133469700D01*
X117030500Y-133489700D01*
X117050500Y-133489700D01*
X117050500Y-133616700D01*
X117030500Y-133616700D01*
X117030500Y-134900875D01*
X117179725Y-135050100D01*
X117885731Y-135050100D01*
X118105117Y-134959227D01*
X118273028Y-134791317D01*
X118363900Y-134571931D01*
X118363900Y-134482393D01*
X118400028Y-134674398D01*
X118530756Y-134877554D01*
X118630700Y-134945843D01*
X118630700Y-136258300D01*
X115404900Y-136258300D01*
X115404900Y-133765925D01*
X115570100Y-133765925D01*
X115570100Y-134571931D01*
X115660972Y-134791317D01*
X115828883Y-134959227D01*
X116048269Y-135050100D01*
X116754275Y-135050100D01*
X116903500Y-134900875D01*
X116903500Y-133616700D01*
X115719325Y-133616700D01*
X115570100Y-133765925D01*
X115404900Y-133765925D01*
X115404900Y-130521469D01*
X116417100Y-130521469D01*
X116417100Y-130927475D01*
X116566325Y-131076700D01*
X117350500Y-131076700D01*
X117350500Y-130192525D01*
X117201275Y-130043300D01*
X116895269Y-130043300D01*
X116675883Y-130134173D01*
X116507972Y-130302083D01*
X116417100Y-130521469D01*
X115404900Y-130521469D01*
X115404900Y-113884469D01*
X135594100Y-113884469D01*
X135594100Y-114290475D01*
X135743325Y-114439700D01*
X136527500Y-114439700D01*
X136527500Y-113555525D01*
X136378275Y-113406300D01*
X136072269Y-113406300D01*
X135852883Y-113497173D01*
X135684972Y-113665083D01*
X135594100Y-113884469D01*
X115404900Y-113884469D01*
X115404900Y-103073200D01*
X140246100Y-103073200D01*
X140494550Y-104322240D01*
X141202074Y-105381126D01*
X142260960Y-106088650D01*
X143510000Y-106337100D01*
X144759040Y-106088650D01*
X145817926Y-105381126D01*
X146525450Y-104322240D01*
X146773900Y-103073200D01*
X146525450Y-101824160D01*
X145817926Y-100765274D01*
X144759040Y-100057750D01*
X143510000Y-99809300D01*
X142260960Y-100057750D01*
X141202074Y-100765274D01*
X140494550Y-101824160D01*
X140246100Y-103073200D01*
X115404900Y-103073200D01*
X115404900Y-97497900D01*
X171361100Y-97497900D01*
X171361100Y-136258300D01*
X171361100Y-136258300D01*
G37*
X171361100Y-136258300D02*
X168325800Y-136258300D01*
X168325800Y-135712200D01*
X168298859Y-135576756D01*
X168273597Y-135449755D01*
X168124934Y-135227266D01*
X167556068Y-134658400D01*
X167641978Y-134572639D01*
X167779543Y-134241346D01*
X167779856Y-133882628D01*
X167669876Y-133616454D01*
X167779543Y-133352346D01*
X167779856Y-132993628D01*
X167642870Y-132662095D01*
X167563800Y-132582887D01*
X167563800Y-126949200D01*
X167550323Y-126881445D01*
X167511597Y-126686755D01*
X167362934Y-126464266D01*
X166346934Y-125448266D01*
X166175480Y-125333704D01*
X166174972Y-125331002D01*
X166150826Y-125293478D01*
X166204900Y-125162931D01*
X166204900Y-124936925D01*
X168575100Y-124936925D01*
X168575100Y-125242931D01*
X168665973Y-125462317D01*
X168833883Y-125630228D01*
X169053269Y-125721100D01*
X169459275Y-125721100D01*
X169608500Y-125571875D01*
X169608500Y-124787700D01*
X169735500Y-124787700D01*
X169735500Y-125571875D01*
X169884725Y-125721100D01*
X170290731Y-125721100D01*
X170510117Y-125630228D01*
X170678027Y-125462317D01*
X170768900Y-125242931D01*
X170768900Y-124936925D01*
X170619675Y-124787700D01*
X169735500Y-124787700D01*
X169608500Y-124787700D01*
X168724325Y-124787700D01*
X168575100Y-124936925D01*
X166204900Y-124936925D01*
X166204900Y-124875925D01*
X166055675Y-124726700D01*
X164528500Y-124726700D01*
X164528500Y-124746700D01*
X164401500Y-124746700D01*
X164401500Y-124726700D01*
X162874325Y-124726700D01*
X162725100Y-124875925D01*
X162725100Y-125162931D01*
X162760088Y-125247400D01*
X162539881Y-125247400D01*
X162461839Y-125169222D01*
X162130546Y-125031657D01*
X161771828Y-125031344D01*
X161440295Y-125168330D01*
X161186422Y-125421761D01*
X161048857Y-125753054D01*
X161048544Y-126111772D01*
X161185530Y-126443305D01*
X161438961Y-126697178D01*
X161741592Y-126822842D01*
X161658457Y-127023054D01*
X161658166Y-127356607D01*
X160909000Y-127356607D01*
X160687802Y-127398228D01*
X160657270Y-127417875D01*
X160637777Y-127404556D01*
X160401000Y-127356607D01*
X159639000Y-127356607D01*
X159550241Y-127373308D01*
X159651543Y-127129346D01*
X159651856Y-126770628D01*
X159514870Y-126439095D01*
X159261439Y-126185222D01*
X158930146Y-126047657D01*
X158571428Y-126047344D01*
X158239895Y-126184330D01*
X157986022Y-126437761D01*
X157848457Y-126769054D01*
X157848144Y-127127772D01*
X157950156Y-127374662D01*
X157861000Y-127356607D01*
X157099000Y-127356607D01*
X156877802Y-127398228D01*
X156847270Y-127417875D01*
X156827777Y-127404556D01*
X156591000Y-127356607D01*
X155829000Y-127356607D01*
X155677996Y-127385020D01*
X155678578Y-127384439D01*
X155816143Y-127053146D01*
X155816167Y-127025412D01*
X156029854Y-127114143D01*
X156388572Y-127114456D01*
X156720105Y-126977470D01*
X156973978Y-126724039D01*
X157111543Y-126392746D01*
X157111856Y-126034028D01*
X157016219Y-125802567D01*
X157299854Y-125920343D01*
X157658572Y-125920656D01*
X157990105Y-125783670D01*
X158243978Y-125530239D01*
X158381543Y-125198946D01*
X158381856Y-124840228D01*
X158244870Y-124508695D01*
X158165800Y-124429487D01*
X158165800Y-119388644D01*
X158369000Y-119429793D01*
X159131000Y-119429793D01*
X159334200Y-119391559D01*
X159334200Y-125038919D01*
X159256022Y-125116961D01*
X159118457Y-125448254D01*
X159118144Y-125806972D01*
X159255130Y-126138505D01*
X159508561Y-126392378D01*
X159839854Y-126529943D01*
X160198572Y-126530256D01*
X160530105Y-126393270D01*
X160783978Y-126139839D01*
X160921543Y-125808546D01*
X160921856Y-125449828D01*
X160784870Y-125118295D01*
X160705800Y-125039087D01*
X160705800Y-119388644D01*
X160909000Y-119429793D01*
X161671000Y-119429793D01*
X161892198Y-119388172D01*
X161922730Y-119368525D01*
X161942223Y-119381844D01*
X162179000Y-119429793D01*
X162713407Y-119429793D01*
X162713407Y-119964200D01*
X162755028Y-120185398D01*
X162774675Y-120215930D01*
X162761356Y-120235423D01*
X162713407Y-120472200D01*
X162713407Y-121234200D01*
X162751641Y-121437400D01*
X162514481Y-121437400D01*
X162436439Y-121359222D01*
X162105146Y-121221657D01*
X161746428Y-121221344D01*
X161414895Y-121358330D01*
X161161022Y-121611761D01*
X161023457Y-121943054D01*
X161023144Y-122301772D01*
X161160130Y-122633305D01*
X161284803Y-122758195D01*
X161161022Y-122881761D01*
X161023457Y-123213054D01*
X161023144Y-123571772D01*
X161160130Y-123903305D01*
X161413561Y-124157178D01*
X161744854Y-124294743D01*
X162103572Y-124295056D01*
X162435105Y-124158070D01*
X162514313Y-124079000D01*
X162760088Y-124079000D01*
X162725100Y-124163469D01*
X162725100Y-124450475D01*
X162874325Y-124599700D01*
X164401500Y-124599700D01*
X164401500Y-124579700D01*
X164528500Y-124579700D01*
X164528500Y-124599700D01*
X166055675Y-124599700D01*
X166204900Y-124450475D01*
X166204900Y-124163469D01*
X166169912Y-124079000D01*
X167685519Y-124079000D01*
X167763561Y-124157178D01*
X168094854Y-124294743D01*
X168453572Y-124295056D01*
X168575100Y-124244842D01*
X168575100Y-124511475D01*
X168724325Y-124660700D01*
X169608500Y-124660700D01*
X169608500Y-124640700D01*
X169735500Y-124640700D01*
X169735500Y-124660700D01*
X170619675Y-124660700D01*
X170768900Y-124511475D01*
X170768900Y-124205469D01*
X170678027Y-123986083D01*
X170510117Y-123818172D01*
X170413458Y-123778135D01*
X170596354Y-123660444D01*
X170732644Y-123460977D01*
X170780593Y-123224200D01*
X170780593Y-122424200D01*
X170738972Y-122203002D01*
X170608244Y-121999846D01*
X170421300Y-121872113D01*
X170421300Y-110820200D01*
X170364263Y-110533455D01*
X170201835Y-110290365D01*
X168423835Y-108512365D01*
X168180745Y-108349937D01*
X167894000Y-108292900D01*
X159276091Y-108292900D01*
X159261439Y-108278222D01*
X158930146Y-108140657D01*
X158571428Y-108140344D01*
X158239895Y-108277330D01*
X158224298Y-108292900D01*
X147846091Y-108292900D01*
X147831439Y-108278222D01*
X147500146Y-108140657D01*
X147141428Y-108140344D01*
X146809895Y-108277330D01*
X146556022Y-108530761D01*
X146418457Y-108862054D01*
X146418438Y-108884092D01*
X141548630Y-113753900D01*
X139439889Y-113753900D01*
X139327244Y-113578846D01*
X139127777Y-113442556D01*
X138891000Y-113394607D01*
X138091000Y-113394607D01*
X137869802Y-113436228D01*
X137666646Y-113566956D01*
X137535740Y-113758543D01*
X137497028Y-113665083D01*
X137329117Y-113497173D01*
X137109731Y-113406300D01*
X136803725Y-113406300D01*
X136654500Y-113555525D01*
X136654500Y-114439700D01*
X136674500Y-114439700D01*
X136674500Y-114566700D01*
X136654500Y-114566700D01*
X136654500Y-114586700D01*
X136527500Y-114586700D01*
X136527500Y-114566700D01*
X135743325Y-114566700D01*
X135594100Y-114715925D01*
X135594100Y-115121931D01*
X135606099Y-115150900D01*
X121539000Y-115150900D01*
X121252255Y-115207937D01*
X121009165Y-115370365D01*
X119993165Y-116386365D01*
X119830737Y-116629455D01*
X119773700Y-116916200D01*
X119773700Y-120605311D01*
X119598646Y-120717956D01*
X119539240Y-120804900D01*
X118806000Y-120804900D01*
X118519255Y-120861937D01*
X118340163Y-120981603D01*
X118276165Y-121024365D01*
X117326165Y-121974365D01*
X117163737Y-122217455D01*
X117106700Y-122504200D01*
X117106700Y-124028200D01*
X117163737Y-124314945D01*
X117326165Y-124558035D01*
X118564700Y-125796570D01*
X118564700Y-130155660D01*
X118489646Y-130203956D01*
X118358740Y-130395543D01*
X118320028Y-130302083D01*
X118152117Y-130134173D01*
X117932731Y-130043300D01*
X117626725Y-130043300D01*
X117477500Y-130192525D01*
X117477500Y-131076700D01*
X117497500Y-131076700D01*
X117497500Y-131203700D01*
X117477500Y-131203700D01*
X117477500Y-131223700D01*
X117350500Y-131223700D01*
X117350500Y-131203700D01*
X116566325Y-131203700D01*
X116417100Y-131352925D01*
X116417100Y-131758931D01*
X116507972Y-131978317D01*
X116585955Y-132056300D01*
X116048269Y-132056300D01*
X115828883Y-132147173D01*
X115660972Y-132315083D01*
X115570100Y-132534469D01*
X115570100Y-133340475D01*
X115719325Y-133489700D01*
X116903500Y-133489700D01*
X116903500Y-133469700D01*
X117030500Y-133469700D01*
X117030500Y-133489700D01*
X117050500Y-133489700D01*
X117050500Y-133616700D01*
X117030500Y-133616700D01*
X117030500Y-134900875D01*
X117179725Y-135050100D01*
X117885731Y-135050100D01*
X118105117Y-134959227D01*
X118273028Y-134791317D01*
X118363900Y-134571931D01*
X118363900Y-134482393D01*
X118400028Y-134674398D01*
X118530756Y-134877554D01*
X118630700Y-134945843D01*
X118630700Y-136258300D01*
X115404900Y-136258300D01*
X115404900Y-133765925D01*
X115570100Y-133765925D01*
X115570100Y-134571931D01*
X115660972Y-134791317D01*
X115828883Y-134959227D01*
X116048269Y-135050100D01*
X116754275Y-135050100D01*
X116903500Y-134900875D01*
X116903500Y-133616700D01*
X115719325Y-133616700D01*
X115570100Y-133765925D01*
X115404900Y-133765925D01*
X115404900Y-130521469D01*
X116417100Y-130521469D01*
X116417100Y-130927475D01*
X116566325Y-131076700D01*
X117350500Y-131076700D01*
X117350500Y-130192525D01*
X117201275Y-130043300D01*
X116895269Y-130043300D01*
X116675883Y-130134173D01*
X116507972Y-130302083D01*
X116417100Y-130521469D01*
X115404900Y-130521469D01*
X115404900Y-113884469D01*
X135594100Y-113884469D01*
X135594100Y-114290475D01*
X135743325Y-114439700D01*
X136527500Y-114439700D01*
X136527500Y-113555525D01*
X136378275Y-113406300D01*
X136072269Y-113406300D01*
X135852883Y-113497173D01*
X135684972Y-113665083D01*
X135594100Y-113884469D01*
X115404900Y-113884469D01*
X115404900Y-103073200D01*
X140246100Y-103073200D01*
X140494550Y-104322240D01*
X141202074Y-105381126D01*
X142260960Y-106088650D01*
X143510000Y-106337100D01*
X144759040Y-106088650D01*
X145817926Y-105381126D01*
X146525450Y-104322240D01*
X146773900Y-103073200D01*
X146525450Y-101824160D01*
X145817926Y-100765274D01*
X144759040Y-100057750D01*
X143510000Y-99809300D01*
X142260960Y-100057750D01*
X141202074Y-100765274D01*
X140494550Y-101824160D01*
X140246100Y-103073200D01*
X115404900Y-103073200D01*
X115404900Y-97497900D01*
X171361100Y-97497900D01*
X171361100Y-136258300D01*
G36*
X126464270Y-124640134D02*
X126686759Y-124788797D01*
X126949204Y-124841000D01*
X127689100Y-124841000D01*
X127689100Y-124853702D01*
X127838323Y-124853702D01*
X127689100Y-125002925D01*
X127689100Y-125158931D01*
X127779972Y-125378317D01*
X127826855Y-125425200D01*
X127779972Y-125472083D01*
X127689100Y-125691469D01*
X127689100Y-125847475D01*
X127838325Y-125996700D01*
X129222500Y-125996700D01*
X129222500Y-124853700D01*
X129202500Y-124853700D01*
X129202500Y-124841000D01*
X129369500Y-124841000D01*
X129369500Y-124853700D01*
X129349500Y-124853700D01*
X129349500Y-125996700D01*
X130733675Y-125996700D01*
X130882900Y-125847475D01*
X130882900Y-125691469D01*
X130792028Y-125472083D01*
X130745145Y-125425200D01*
X130792028Y-125378317D01*
X130882900Y-125158931D01*
X130882900Y-125070968D01*
X131722066Y-125910134D01*
X131944555Y-126058797D01*
X132207000Y-126111000D01*
X132992100Y-126111000D01*
X132992100Y-126123702D01*
X133141323Y-126123702D01*
X132992100Y-126272925D01*
X132992100Y-126428931D01*
X133082972Y-126648317D01*
X133250883Y-126816227D01*
X133470269Y-126907100D01*
X134376275Y-126907100D01*
X134525500Y-126757875D01*
X134525500Y-126123700D01*
X134505500Y-126123700D01*
X134505500Y-126111000D01*
X134672500Y-126111000D01*
X134672500Y-126123700D01*
X134652500Y-126123700D01*
X134652500Y-126757875D01*
X134801725Y-126907100D01*
X135707731Y-126907100D01*
X135927117Y-126816227D01*
X136095028Y-126648317D01*
X136185900Y-126428931D01*
X136185900Y-126272925D01*
X136036677Y-126123702D01*
X136126634Y-126123702D01*
X136548066Y-126545134D01*
X136770555Y-126693797D01*
X137033000Y-126746001D01*
X137033005Y-126746000D01*
X139169508Y-126746000D01*
X139352223Y-126870844D01*
X139589000Y-126918793D01*
X141540631Y-126918793D01*
X141627530Y-127129105D01*
X141880961Y-127382978D01*
X142212254Y-127520543D01*
X142324173Y-127520641D01*
X148958218Y-134154686D01*
X148958144Y-134239772D01*
X149095130Y-134571305D01*
X149245447Y-134721885D01*
X148902892Y-135064440D01*
X148792428Y-135064344D01*
X148460895Y-135201330D01*
X148207022Y-135454761D01*
X148069457Y-135786054D01*
X148069144Y-136144772D01*
X148116053Y-136258300D01*
X142925800Y-136258300D01*
X142925800Y-129743200D01*
X142898859Y-129607756D01*
X142873597Y-129480755D01*
X142724934Y-129258266D01*
X140819934Y-127353266D01*
X140597445Y-127204603D01*
X140335000Y-127152400D01*
X138079681Y-127152400D01*
X138001639Y-127074222D01*
X137670346Y-126936657D01*
X137311628Y-126936344D01*
X136980095Y-127073330D01*
X136726222Y-127326761D01*
X136588657Y-127658054D01*
X136588344Y-128016772D01*
X136725330Y-128348305D01*
X136978761Y-128602178D01*
X137310054Y-128739743D01*
X137437539Y-128739854D01*
X137538130Y-128983305D01*
X137791561Y-129237178D01*
X138122854Y-129374743D01*
X138234773Y-129374841D01*
X139014200Y-130154268D01*
X139014200Y-131756567D01*
X138978802Y-131763228D01*
X138775646Y-131893956D01*
X138639356Y-132093423D01*
X138591407Y-132330200D01*
X138591407Y-133130200D01*
X138633028Y-133351398D01*
X138763756Y-133554554D01*
X138949964Y-133681785D01*
X138775646Y-133793956D01*
X138672852Y-133944400D01*
X138185402Y-133944400D01*
X138096244Y-133805846D01*
X137904657Y-133674940D01*
X137998117Y-133636228D01*
X138166027Y-133468317D01*
X138256900Y-133248931D01*
X138256900Y-132942925D01*
X138107675Y-132793700D01*
X137223500Y-132793700D01*
X137223500Y-132813700D01*
X137096500Y-132813700D01*
X137096500Y-132793700D01*
X136212325Y-132793700D01*
X136063100Y-132942925D01*
X136063100Y-133248931D01*
X136153973Y-133468317D01*
X136321883Y-133636228D01*
X136418542Y-133676265D01*
X136235646Y-133793956D01*
X136099356Y-133993423D01*
X136051407Y-134230200D01*
X136051407Y-135030200D01*
X136093028Y-135251398D01*
X136223756Y-135454554D01*
X136423223Y-135590844D01*
X136474200Y-135601167D01*
X136474200Y-136258300D01*
X135305800Y-136258300D01*
X135305800Y-135603833D01*
X135341198Y-135597172D01*
X135544354Y-135466444D01*
X135680644Y-135266977D01*
X135728593Y-135030200D01*
X135728593Y-134230200D01*
X135686972Y-134009002D01*
X135556244Y-133805846D01*
X135364657Y-133674940D01*
X135458117Y-133636228D01*
X135626027Y-133468317D01*
X135716900Y-133248931D01*
X135716900Y-132942925D01*
X135567675Y-132793700D01*
X134683500Y-132793700D01*
X134683500Y-132813700D01*
X134556500Y-132813700D01*
X134556500Y-132793700D01*
X133672325Y-132793700D01*
X133523100Y-132942925D01*
X133523100Y-133248931D01*
X133613973Y-133468317D01*
X133781883Y-133636228D01*
X133878542Y-133676265D01*
X133695646Y-133793956D01*
X133559356Y-133993423D01*
X133511407Y-134230200D01*
X133511407Y-135030200D01*
X133553028Y-135251398D01*
X133683756Y-135454554D01*
X133883223Y-135590844D01*
X133934200Y-135601167D01*
X133934200Y-136258300D01*
X132765800Y-136258300D01*
X132765800Y-134823205D01*
X132765801Y-134823200D01*
X132713597Y-134560756D01*
X132564934Y-134338266D01*
X130438137Y-132211469D01*
X133523100Y-132211469D01*
X133523100Y-132517475D01*
X133672325Y-132666700D01*
X134556500Y-132666700D01*
X134556500Y-131882525D01*
X134683500Y-131882525D01*
X134683500Y-132666700D01*
X135567675Y-132666700D01*
X135716900Y-132517475D01*
X135716900Y-132211469D01*
X136063100Y-132211469D01*
X136063100Y-132517475D01*
X136212325Y-132666700D01*
X137096500Y-132666700D01*
X137096500Y-131882525D01*
X137223500Y-131882525D01*
X137223500Y-132666700D01*
X138107675Y-132666700D01*
X138256900Y-132517475D01*
X138256900Y-132211469D01*
X138166027Y-131992083D01*
X137998117Y-131824172D01*
X137778731Y-131733300D01*
X137372725Y-131733300D01*
X137223500Y-131882525D01*
X137096500Y-131882525D01*
X136947275Y-131733300D01*
X136541269Y-131733300D01*
X136321883Y-131824172D01*
X136153973Y-131992083D01*
X136063100Y-132211469D01*
X135716900Y-132211469D01*
X135626027Y-131992083D01*
X135458117Y-131824172D01*
X135238731Y-131733300D01*
X134832725Y-131733300D01*
X134683500Y-131882525D01*
X134556500Y-131882525D01*
X134407275Y-131733300D01*
X134001269Y-131733300D01*
X133781883Y-131824172D01*
X133613973Y-131992083D01*
X133523100Y-132211469D01*
X130438137Y-132211469D01*
X126136402Y-127909734D01*
X126136402Y-126272925D01*
X127689100Y-126272925D01*
X127689100Y-126428931D01*
X127779972Y-126648317D01*
X127947883Y-126816227D01*
X128167269Y-126907100D01*
X129073275Y-126907100D01*
X129222500Y-126757875D01*
X129222500Y-126123700D01*
X129349500Y-126123700D01*
X129349500Y-126757875D01*
X129498725Y-126907100D01*
X130404731Y-126907100D01*
X130624117Y-126816227D01*
X130792028Y-126648317D01*
X130882900Y-126428931D01*
X130882900Y-126272925D01*
X130733675Y-126123700D01*
X129349500Y-126123700D01*
X129222500Y-126123700D01*
X127838325Y-126123700D01*
X127689100Y-126272925D01*
X126136402Y-126272925D01*
X126136402Y-124312266D01*
X126464270Y-124640134D01*
X126464270Y-124640134D01*
G37*
X126464270Y-124640134D02*
X126686759Y-124788797D01*
X126949204Y-124841000D01*
X127689100Y-124841000D01*
X127689100Y-124853702D01*
X127838323Y-124853702D01*
X127689100Y-125002925D01*
X127689100Y-125158931D01*
X127779972Y-125378317D01*
X127826855Y-125425200D01*
X127779972Y-125472083D01*
X127689100Y-125691469D01*
X127689100Y-125847475D01*
X127838325Y-125996700D01*
X129222500Y-125996700D01*
X129222500Y-124853700D01*
X129202500Y-124853700D01*
X129202500Y-124841000D01*
X129369500Y-124841000D01*
X129369500Y-124853700D01*
X129349500Y-124853700D01*
X129349500Y-125996700D01*
X130733675Y-125996700D01*
X130882900Y-125847475D01*
X130882900Y-125691469D01*
X130792028Y-125472083D01*
X130745145Y-125425200D01*
X130792028Y-125378317D01*
X130882900Y-125158931D01*
X130882900Y-125070968D01*
X131722066Y-125910134D01*
X131944555Y-126058797D01*
X132207000Y-126111000D01*
X132992100Y-126111000D01*
X132992100Y-126123702D01*
X133141323Y-126123702D01*
X132992100Y-126272925D01*
X132992100Y-126428931D01*
X133082972Y-126648317D01*
X133250883Y-126816227D01*
X133470269Y-126907100D01*
X134376275Y-126907100D01*
X134525500Y-126757875D01*
X134525500Y-126123700D01*
X134505500Y-126123700D01*
X134505500Y-126111000D01*
X134672500Y-126111000D01*
X134672500Y-126123700D01*
X134652500Y-126123700D01*
X134652500Y-126757875D01*
X134801725Y-126907100D01*
X135707731Y-126907100D01*
X135927117Y-126816227D01*
X136095028Y-126648317D01*
X136185900Y-126428931D01*
X136185900Y-126272925D01*
X136036677Y-126123702D01*
X136126634Y-126123702D01*
X136548066Y-126545134D01*
X136770555Y-126693797D01*
X137033000Y-126746001D01*
X137033005Y-126746000D01*
X139169508Y-126746000D01*
X139352223Y-126870844D01*
X139589000Y-126918793D01*
X141540631Y-126918793D01*
X141627530Y-127129105D01*
X141880961Y-127382978D01*
X142212254Y-127520543D01*
X142324173Y-127520641D01*
X148958218Y-134154686D01*
X148958144Y-134239772D01*
X149095130Y-134571305D01*
X149245447Y-134721885D01*
X148902892Y-135064440D01*
X148792428Y-135064344D01*
X148460895Y-135201330D01*
X148207022Y-135454761D01*
X148069457Y-135786054D01*
X148069144Y-136144772D01*
X148116053Y-136258300D01*
X142925800Y-136258300D01*
X142925800Y-129743200D01*
X142898859Y-129607756D01*
X142873597Y-129480755D01*
X142724934Y-129258266D01*
X140819934Y-127353266D01*
X140597445Y-127204603D01*
X140335000Y-127152400D01*
X138079681Y-127152400D01*
X138001639Y-127074222D01*
X137670346Y-126936657D01*
X137311628Y-126936344D01*
X136980095Y-127073330D01*
X136726222Y-127326761D01*
X136588657Y-127658054D01*
X136588344Y-128016772D01*
X136725330Y-128348305D01*
X136978761Y-128602178D01*
X137310054Y-128739743D01*
X137437539Y-128739854D01*
X137538130Y-128983305D01*
X137791561Y-129237178D01*
X138122854Y-129374743D01*
X138234773Y-129374841D01*
X139014200Y-130154268D01*
X139014200Y-131756567D01*
X138978802Y-131763228D01*
X138775646Y-131893956D01*
X138639356Y-132093423D01*
X138591407Y-132330200D01*
X138591407Y-133130200D01*
X138633028Y-133351398D01*
X138763756Y-133554554D01*
X138949964Y-133681785D01*
X138775646Y-133793956D01*
X138672852Y-133944400D01*
X138185402Y-133944400D01*
X138096244Y-133805846D01*
X137904657Y-133674940D01*
X137998117Y-133636228D01*
X138166027Y-133468317D01*
X138256900Y-133248931D01*
X138256900Y-132942925D01*
X138107675Y-132793700D01*
X137223500Y-132793700D01*
X137223500Y-132813700D01*
X137096500Y-132813700D01*
X137096500Y-132793700D01*
X136212325Y-132793700D01*
X136063100Y-132942925D01*
X136063100Y-133248931D01*
X136153973Y-133468317D01*
X136321883Y-133636228D01*
X136418542Y-133676265D01*
X136235646Y-133793956D01*
X136099356Y-133993423D01*
X136051407Y-134230200D01*
X136051407Y-135030200D01*
X136093028Y-135251398D01*
X136223756Y-135454554D01*
X136423223Y-135590844D01*
X136474200Y-135601167D01*
X136474200Y-136258300D01*
X135305800Y-136258300D01*
X135305800Y-135603833D01*
X135341198Y-135597172D01*
X135544354Y-135466444D01*
X135680644Y-135266977D01*
X135728593Y-135030200D01*
X135728593Y-134230200D01*
X135686972Y-134009002D01*
X135556244Y-133805846D01*
X135364657Y-133674940D01*
X135458117Y-133636228D01*
X135626027Y-133468317D01*
X135716900Y-133248931D01*
X135716900Y-132942925D01*
X135567675Y-132793700D01*
X134683500Y-132793700D01*
X134683500Y-132813700D01*
X134556500Y-132813700D01*
X134556500Y-132793700D01*
X133672325Y-132793700D01*
X133523100Y-132942925D01*
X133523100Y-133248931D01*
X133613973Y-133468317D01*
X133781883Y-133636228D01*
X133878542Y-133676265D01*
X133695646Y-133793956D01*
X133559356Y-133993423D01*
X133511407Y-134230200D01*
X133511407Y-135030200D01*
X133553028Y-135251398D01*
X133683756Y-135454554D01*
X133883223Y-135590844D01*
X133934200Y-135601167D01*
X133934200Y-136258300D01*
X132765800Y-136258300D01*
X132765800Y-134823205D01*
X132765801Y-134823200D01*
X132713597Y-134560756D01*
X132564934Y-134338266D01*
X130438137Y-132211469D01*
X133523100Y-132211469D01*
X133523100Y-132517475D01*
X133672325Y-132666700D01*
X134556500Y-132666700D01*
X134556500Y-131882525D01*
X134683500Y-131882525D01*
X134683500Y-132666700D01*
X135567675Y-132666700D01*
X135716900Y-132517475D01*
X135716900Y-132211469D01*
X136063100Y-132211469D01*
X136063100Y-132517475D01*
X136212325Y-132666700D01*
X137096500Y-132666700D01*
X137096500Y-131882525D01*
X137223500Y-131882525D01*
X137223500Y-132666700D01*
X138107675Y-132666700D01*
X138256900Y-132517475D01*
X138256900Y-132211469D01*
X138166027Y-131992083D01*
X137998117Y-131824172D01*
X137778731Y-131733300D01*
X137372725Y-131733300D01*
X137223500Y-131882525D01*
X137096500Y-131882525D01*
X136947275Y-131733300D01*
X136541269Y-131733300D01*
X136321883Y-131824172D01*
X136153973Y-131992083D01*
X136063100Y-132211469D01*
X135716900Y-132211469D01*
X135626027Y-131992083D01*
X135458117Y-131824172D01*
X135238731Y-131733300D01*
X134832725Y-131733300D01*
X134683500Y-131882525D01*
X134556500Y-131882525D01*
X134407275Y-131733300D01*
X134001269Y-131733300D01*
X133781883Y-131824172D01*
X133613973Y-131992083D01*
X133523100Y-132211469D01*
X130438137Y-132211469D01*
X126136402Y-127909734D01*
X126136402Y-126272925D01*
X127689100Y-126272925D01*
X127689100Y-126428931D01*
X127779972Y-126648317D01*
X127947883Y-126816227D01*
X128167269Y-126907100D01*
X129073275Y-126907100D01*
X129222500Y-126757875D01*
X129222500Y-126123700D01*
X129349500Y-126123700D01*
X129349500Y-126757875D01*
X129498725Y-126907100D01*
X130404731Y-126907100D01*
X130624117Y-126816227D01*
X130792028Y-126648317D01*
X130882900Y-126428931D01*
X130882900Y-126272925D01*
X130733675Y-126123700D01*
X129349500Y-126123700D01*
X129222500Y-126123700D01*
X127838325Y-126123700D01*
X127689100Y-126272925D01*
X126136402Y-126272925D01*
X126136402Y-124312266D01*
X126464270Y-124640134D01*
G36*
X128536700Y-117581607D02*
X128286000Y-117581607D01*
X128064802Y-117623228D01*
X127861646Y-117753956D01*
X127725356Y-117953423D01*
X127677407Y-118190200D01*
X127677407Y-118690200D01*
X127719028Y-118911398D01*
X127825499Y-119076858D01*
X127725356Y-119223423D01*
X127677407Y-119460200D01*
X127677407Y-119960200D01*
X127719028Y-120181398D01*
X127825381Y-120346674D01*
X127779972Y-120392083D01*
X127689100Y-120611469D01*
X127689100Y-120767475D01*
X127838325Y-120916700D01*
X129222500Y-120916700D01*
X129222500Y-120896700D01*
X129349500Y-120896700D01*
X129349500Y-120916700D01*
X130733675Y-120916700D01*
X130882900Y-120767475D01*
X130882900Y-120611469D01*
X130792028Y-120392083D01*
X130745277Y-120345332D01*
X130846644Y-120196977D01*
X130894593Y-119960200D01*
X130894593Y-119460200D01*
X130852972Y-119239002D01*
X130746501Y-119073542D01*
X130846644Y-118926977D01*
X130894593Y-118690200D01*
X130894593Y-118190200D01*
X130852972Y-117969002D01*
X130722244Y-117765846D01*
X130522777Y-117629556D01*
X130286000Y-117581607D01*
X130035300Y-117581607D01*
X130035300Y-116649500D01*
X131731699Y-116649500D01*
X131722422Y-116658761D01*
X131584857Y-116990054D01*
X131584544Y-117348772D01*
X131721530Y-117680305D01*
X131974961Y-117934178D01*
X132306254Y-118071743D01*
X132664972Y-118072056D01*
X132996505Y-117935070D01*
X133075713Y-117856000D01*
X133094922Y-117856000D01*
X133028356Y-117953423D01*
X132980407Y-118190200D01*
X132980407Y-118389400D01*
X132842000Y-118389400D01*
X132579556Y-118441603D01*
X132357066Y-118590266D01*
X132357064Y-118590269D01*
X131849066Y-119098266D01*
X131700403Y-119320755D01*
X131675141Y-119447756D01*
X131648200Y-119583200D01*
X131648200Y-121742200D01*
X131700403Y-122004645D01*
X131849066Y-122227134D01*
X132357064Y-122735131D01*
X132357066Y-122735134D01*
X132579556Y-122883797D01*
X132842000Y-122936000D01*
X133094922Y-122936000D01*
X133028356Y-123033423D01*
X132980407Y-123270200D01*
X132980407Y-123770200D01*
X133022028Y-123991398D01*
X133128499Y-124156858D01*
X133028356Y-124303423D01*
X132980407Y-124540200D01*
X132980407Y-124739400D01*
X132491068Y-124739400D01*
X131421934Y-123670266D01*
X131199445Y-123521603D01*
X130937000Y-123469400D01*
X130894593Y-123469400D01*
X130894593Y-123270200D01*
X130852972Y-123049002D01*
X130746619Y-122883726D01*
X130792028Y-122838317D01*
X130882900Y-122618931D01*
X130882900Y-122462925D01*
X130733675Y-122313700D01*
X129349500Y-122313700D01*
X129349500Y-122333700D01*
X129222500Y-122333700D01*
X129222500Y-122313700D01*
X127838325Y-122313700D01*
X127689100Y-122462925D01*
X127689100Y-122618931D01*
X127779972Y-122838317D01*
X127826723Y-122885068D01*
X127725356Y-123033423D01*
X127677407Y-123270200D01*
X127677407Y-123469400D01*
X127233272Y-123469400D01*
X126542800Y-122778928D01*
X126542800Y-121192925D01*
X127689100Y-121192925D01*
X127689100Y-121348931D01*
X127779972Y-121568317D01*
X127826855Y-121615200D01*
X127779972Y-121662083D01*
X127689100Y-121881469D01*
X127689100Y-122037475D01*
X127838325Y-122186700D01*
X129222500Y-122186700D01*
X129222500Y-121043700D01*
X129349500Y-121043700D01*
X129349500Y-122186700D01*
X130733675Y-122186700D01*
X130882900Y-122037475D01*
X130882900Y-121881469D01*
X130792028Y-121662083D01*
X130745145Y-121615200D01*
X130792028Y-121568317D01*
X130882900Y-121348931D01*
X130882900Y-121192925D01*
X130733675Y-121043700D01*
X129349500Y-121043700D01*
X129222500Y-121043700D01*
X127838325Y-121043700D01*
X127689100Y-121192925D01*
X126542800Y-121192925D01*
X126542800Y-119202200D01*
X126516854Y-119071761D01*
X126490597Y-118939755D01*
X126341934Y-118717266D01*
X125579934Y-117955266D01*
X125357445Y-117806603D01*
X125095000Y-117754400D01*
X124705492Y-117754400D01*
X124522777Y-117629556D01*
X124286000Y-117581607D01*
X122286000Y-117581607D01*
X122064802Y-117623228D01*
X121861646Y-117753956D01*
X121725356Y-117953423D01*
X121677407Y-118190200D01*
X121677407Y-118690200D01*
X121719028Y-118911398D01*
X121825499Y-119076858D01*
X121725356Y-119223423D01*
X121677407Y-119460200D01*
X121677407Y-119960200D01*
X121719028Y-120181398D01*
X121825499Y-120346858D01*
X121725356Y-120493423D01*
X121677407Y-120730200D01*
X121677407Y-121230200D01*
X121719028Y-121451398D01*
X121825499Y-121616858D01*
X121725356Y-121763423D01*
X121677407Y-122000200D01*
X121677407Y-122500200D01*
X121719028Y-122721398D01*
X121825381Y-122886674D01*
X121779972Y-122932083D01*
X121689100Y-123151469D01*
X121689100Y-123307475D01*
X121838325Y-123456700D01*
X123222500Y-123456700D01*
X123222500Y-123436700D01*
X123349500Y-123436700D01*
X123349500Y-123456700D01*
X123369500Y-123456700D01*
X123369500Y-123583700D01*
X123349500Y-123583700D01*
X123349500Y-124726700D01*
X123369500Y-124726700D01*
X123369500Y-124853700D01*
X123349500Y-124853700D01*
X123349500Y-125996700D01*
X123369500Y-125996700D01*
X123369500Y-126123700D01*
X123349500Y-126123700D01*
X123349500Y-126757875D01*
X123498725Y-126907100D01*
X124404731Y-126907100D01*
X124409200Y-126905249D01*
X124409200Y-128899719D01*
X124331022Y-128977761D01*
X124193457Y-129309054D01*
X124193144Y-129667772D01*
X124330130Y-129999305D01*
X124583561Y-130253178D01*
X124914854Y-130390743D01*
X125273572Y-130391056D01*
X125605105Y-130254070D01*
X125858978Y-130000639D01*
X125984729Y-129697797D01*
X127376110Y-131089178D01*
X127201222Y-131263761D01*
X127063657Y-131595054D01*
X127063559Y-131706973D01*
X126515066Y-132255466D01*
X126366403Y-132477955D01*
X126366403Y-132477956D01*
X126314200Y-132740400D01*
X126314200Y-136258300D01*
X120129300Y-136258300D01*
X120129300Y-135061793D01*
X120567000Y-135061793D01*
X120788198Y-135020172D01*
X120991354Y-134889444D01*
X121127644Y-134689977D01*
X121175593Y-134453200D01*
X121175593Y-132653200D01*
X121133972Y-132432002D01*
X121003244Y-132228846D01*
X120803777Y-132092556D01*
X120567000Y-132044607D01*
X120160107Y-132044607D01*
X120274644Y-131876977D01*
X120322593Y-131640200D01*
X120322593Y-130640200D01*
X120280972Y-130419002D01*
X120150244Y-130215846D01*
X120063300Y-130156440D01*
X120063300Y-126272925D01*
X121689100Y-126272925D01*
X121689100Y-126428931D01*
X121779972Y-126648317D01*
X121947883Y-126816227D01*
X122167269Y-126907100D01*
X123073275Y-126907100D01*
X123222500Y-126757875D01*
X123222500Y-126123700D01*
X121838325Y-126123700D01*
X121689100Y-126272925D01*
X120063300Y-126272925D01*
X120063300Y-125486200D01*
X120006263Y-125199455D01*
X119874946Y-125002925D01*
X121689100Y-125002925D01*
X121689100Y-125158931D01*
X121779972Y-125378317D01*
X121826855Y-125425200D01*
X121779972Y-125472083D01*
X121689100Y-125691469D01*
X121689100Y-125847475D01*
X121838325Y-125996700D01*
X123222500Y-125996700D01*
X123222500Y-124853700D01*
X121838325Y-124853700D01*
X121689100Y-125002925D01*
X119874946Y-125002925D01*
X119843835Y-124956365D01*
X118605300Y-123717830D01*
X118605300Y-123666925D01*
X119426100Y-123666925D01*
X119426100Y-123972931D01*
X119516973Y-124192317D01*
X119684883Y-124360228D01*
X119904269Y-124451100D01*
X120310275Y-124451100D01*
X120459500Y-124301875D01*
X120459500Y-123517700D01*
X120586500Y-123517700D01*
X120586500Y-124301875D01*
X120735725Y-124451100D01*
X121141731Y-124451100D01*
X121361117Y-124360228D01*
X121529027Y-124192317D01*
X121619900Y-123972931D01*
X121619900Y-123732925D01*
X121689100Y-123732925D01*
X121689100Y-123888931D01*
X121779972Y-124108317D01*
X121826855Y-124155200D01*
X121779972Y-124202083D01*
X121689100Y-124421469D01*
X121689100Y-124577475D01*
X121838325Y-124726700D01*
X123222500Y-124726700D01*
X123222500Y-123583700D01*
X121838325Y-123583700D01*
X121689100Y-123732925D01*
X121619900Y-123732925D01*
X121619900Y-123666925D01*
X121470675Y-123517700D01*
X120586500Y-123517700D01*
X120459500Y-123517700D01*
X119575325Y-123517700D01*
X119426100Y-123666925D01*
X118605300Y-123666925D01*
X118605300Y-122814570D01*
X119116370Y-122303500D01*
X119538460Y-122303500D01*
X119586756Y-122378554D01*
X119778343Y-122509460D01*
X119684883Y-122548172D01*
X119516973Y-122716083D01*
X119426100Y-122935469D01*
X119426100Y-123241475D01*
X119575325Y-123390700D01*
X120459500Y-123390700D01*
X120459500Y-123370700D01*
X120586500Y-123370700D01*
X120586500Y-123390700D01*
X121470675Y-123390700D01*
X121619900Y-123241475D01*
X121619900Y-122935469D01*
X121529027Y-122716083D01*
X121361117Y-122548172D01*
X121264458Y-122508135D01*
X121447354Y-122390444D01*
X121583644Y-122190977D01*
X121631593Y-121954200D01*
X121631593Y-121154200D01*
X121589972Y-120933002D01*
X121459244Y-120729846D01*
X121272300Y-120602113D01*
X121272300Y-117226570D01*
X121849370Y-116649500D01*
X128536700Y-116649500D01*
X128536700Y-117581607D01*
X128536700Y-117581607D01*
G37*
X128536700Y-117581607D02*
X128286000Y-117581607D01*
X128064802Y-117623228D01*
X127861646Y-117753956D01*
X127725356Y-117953423D01*
X127677407Y-118190200D01*
X127677407Y-118690200D01*
X127719028Y-118911398D01*
X127825499Y-119076858D01*
X127725356Y-119223423D01*
X127677407Y-119460200D01*
X127677407Y-119960200D01*
X127719028Y-120181398D01*
X127825381Y-120346674D01*
X127779972Y-120392083D01*
X127689100Y-120611469D01*
X127689100Y-120767475D01*
X127838325Y-120916700D01*
X129222500Y-120916700D01*
X129222500Y-120896700D01*
X129349500Y-120896700D01*
X129349500Y-120916700D01*
X130733675Y-120916700D01*
X130882900Y-120767475D01*
X130882900Y-120611469D01*
X130792028Y-120392083D01*
X130745277Y-120345332D01*
X130846644Y-120196977D01*
X130894593Y-119960200D01*
X130894593Y-119460200D01*
X130852972Y-119239002D01*
X130746501Y-119073542D01*
X130846644Y-118926977D01*
X130894593Y-118690200D01*
X130894593Y-118190200D01*
X130852972Y-117969002D01*
X130722244Y-117765846D01*
X130522777Y-117629556D01*
X130286000Y-117581607D01*
X130035300Y-117581607D01*
X130035300Y-116649500D01*
X131731699Y-116649500D01*
X131722422Y-116658761D01*
X131584857Y-116990054D01*
X131584544Y-117348772D01*
X131721530Y-117680305D01*
X131974961Y-117934178D01*
X132306254Y-118071743D01*
X132664972Y-118072056D01*
X132996505Y-117935070D01*
X133075713Y-117856000D01*
X133094922Y-117856000D01*
X133028356Y-117953423D01*
X132980407Y-118190200D01*
X132980407Y-118389400D01*
X132842000Y-118389400D01*
X132579556Y-118441603D01*
X132357066Y-118590266D01*
X132357064Y-118590269D01*
X131849066Y-119098266D01*
X131700403Y-119320755D01*
X131675141Y-119447756D01*
X131648200Y-119583200D01*
X131648200Y-121742200D01*
X131700403Y-122004645D01*
X131849066Y-122227134D01*
X132357064Y-122735131D01*
X132357066Y-122735134D01*
X132579556Y-122883797D01*
X132842000Y-122936000D01*
X133094922Y-122936000D01*
X133028356Y-123033423D01*
X132980407Y-123270200D01*
X132980407Y-123770200D01*
X133022028Y-123991398D01*
X133128499Y-124156858D01*
X133028356Y-124303423D01*
X132980407Y-124540200D01*
X132980407Y-124739400D01*
X132491068Y-124739400D01*
X131421934Y-123670266D01*
X131199445Y-123521603D01*
X130937000Y-123469400D01*
X130894593Y-123469400D01*
X130894593Y-123270200D01*
X130852972Y-123049002D01*
X130746619Y-122883726D01*
X130792028Y-122838317D01*
X130882900Y-122618931D01*
X130882900Y-122462925D01*
X130733675Y-122313700D01*
X129349500Y-122313700D01*
X129349500Y-122333700D01*
X129222500Y-122333700D01*
X129222500Y-122313700D01*
X127838325Y-122313700D01*
X127689100Y-122462925D01*
X127689100Y-122618931D01*
X127779972Y-122838317D01*
X127826723Y-122885068D01*
X127725356Y-123033423D01*
X127677407Y-123270200D01*
X127677407Y-123469400D01*
X127233272Y-123469400D01*
X126542800Y-122778928D01*
X126542800Y-121192925D01*
X127689100Y-121192925D01*
X127689100Y-121348931D01*
X127779972Y-121568317D01*
X127826855Y-121615200D01*
X127779972Y-121662083D01*
X127689100Y-121881469D01*
X127689100Y-122037475D01*
X127838325Y-122186700D01*
X129222500Y-122186700D01*
X129222500Y-121043700D01*
X129349500Y-121043700D01*
X129349500Y-122186700D01*
X130733675Y-122186700D01*
X130882900Y-122037475D01*
X130882900Y-121881469D01*
X130792028Y-121662083D01*
X130745145Y-121615200D01*
X130792028Y-121568317D01*
X130882900Y-121348931D01*
X130882900Y-121192925D01*
X130733675Y-121043700D01*
X129349500Y-121043700D01*
X129222500Y-121043700D01*
X127838325Y-121043700D01*
X127689100Y-121192925D01*
X126542800Y-121192925D01*
X126542800Y-119202200D01*
X126516854Y-119071761D01*
X126490597Y-118939755D01*
X126341934Y-118717266D01*
X125579934Y-117955266D01*
X125357445Y-117806603D01*
X125095000Y-117754400D01*
X124705492Y-117754400D01*
X124522777Y-117629556D01*
X124286000Y-117581607D01*
X122286000Y-117581607D01*
X122064802Y-117623228D01*
X121861646Y-117753956D01*
X121725356Y-117953423D01*
X121677407Y-118190200D01*
X121677407Y-118690200D01*
X121719028Y-118911398D01*
X121825499Y-119076858D01*
X121725356Y-119223423D01*
X121677407Y-119460200D01*
X121677407Y-119960200D01*
X121719028Y-120181398D01*
X121825499Y-120346858D01*
X121725356Y-120493423D01*
X121677407Y-120730200D01*
X121677407Y-121230200D01*
X121719028Y-121451398D01*
X121825499Y-121616858D01*
X121725356Y-121763423D01*
X121677407Y-122000200D01*
X121677407Y-122500200D01*
X121719028Y-122721398D01*
X121825381Y-122886674D01*
X121779972Y-122932083D01*
X121689100Y-123151469D01*
X121689100Y-123307475D01*
X121838325Y-123456700D01*
X123222500Y-123456700D01*
X123222500Y-123436700D01*
X123349500Y-123436700D01*
X123349500Y-123456700D01*
X123369500Y-123456700D01*
X123369500Y-123583700D01*
X123349500Y-123583700D01*
X123349500Y-124726700D01*
X123369500Y-124726700D01*
X123369500Y-124853700D01*
X123349500Y-124853700D01*
X123349500Y-125996700D01*
X123369500Y-125996700D01*
X123369500Y-126123700D01*
X123349500Y-126123700D01*
X123349500Y-126757875D01*
X123498725Y-126907100D01*
X124404731Y-126907100D01*
X124409200Y-126905249D01*
X124409200Y-128899719D01*
X124331022Y-128977761D01*
X124193457Y-129309054D01*
X124193144Y-129667772D01*
X124330130Y-129999305D01*
X124583561Y-130253178D01*
X124914854Y-130390743D01*
X125273572Y-130391056D01*
X125605105Y-130254070D01*
X125858978Y-130000639D01*
X125984729Y-129697797D01*
X127376110Y-131089178D01*
X127201222Y-131263761D01*
X127063657Y-131595054D01*
X127063559Y-131706973D01*
X126515066Y-132255466D01*
X126366403Y-132477955D01*
X126366403Y-132477956D01*
X126314200Y-132740400D01*
X126314200Y-136258300D01*
X120129300Y-136258300D01*
X120129300Y-135061793D01*
X120567000Y-135061793D01*
X120788198Y-135020172D01*
X120991354Y-134889444D01*
X121127644Y-134689977D01*
X121175593Y-134453200D01*
X121175593Y-132653200D01*
X121133972Y-132432002D01*
X121003244Y-132228846D01*
X120803777Y-132092556D01*
X120567000Y-132044607D01*
X120160107Y-132044607D01*
X120274644Y-131876977D01*
X120322593Y-131640200D01*
X120322593Y-130640200D01*
X120280972Y-130419002D01*
X120150244Y-130215846D01*
X120063300Y-130156440D01*
X120063300Y-126272925D01*
X121689100Y-126272925D01*
X121689100Y-126428931D01*
X121779972Y-126648317D01*
X121947883Y-126816227D01*
X122167269Y-126907100D01*
X123073275Y-126907100D01*
X123222500Y-126757875D01*
X123222500Y-126123700D01*
X121838325Y-126123700D01*
X121689100Y-126272925D01*
X120063300Y-126272925D01*
X120063300Y-125486200D01*
X120006263Y-125199455D01*
X119874946Y-125002925D01*
X121689100Y-125002925D01*
X121689100Y-125158931D01*
X121779972Y-125378317D01*
X121826855Y-125425200D01*
X121779972Y-125472083D01*
X121689100Y-125691469D01*
X121689100Y-125847475D01*
X121838325Y-125996700D01*
X123222500Y-125996700D01*
X123222500Y-124853700D01*
X121838325Y-124853700D01*
X121689100Y-125002925D01*
X119874946Y-125002925D01*
X119843835Y-124956365D01*
X118605300Y-123717830D01*
X118605300Y-123666925D01*
X119426100Y-123666925D01*
X119426100Y-123972931D01*
X119516973Y-124192317D01*
X119684883Y-124360228D01*
X119904269Y-124451100D01*
X120310275Y-124451100D01*
X120459500Y-124301875D01*
X120459500Y-123517700D01*
X120586500Y-123517700D01*
X120586500Y-124301875D01*
X120735725Y-124451100D01*
X121141731Y-124451100D01*
X121361117Y-124360228D01*
X121529027Y-124192317D01*
X121619900Y-123972931D01*
X121619900Y-123732925D01*
X121689100Y-123732925D01*
X121689100Y-123888931D01*
X121779972Y-124108317D01*
X121826855Y-124155200D01*
X121779972Y-124202083D01*
X121689100Y-124421469D01*
X121689100Y-124577475D01*
X121838325Y-124726700D01*
X123222500Y-124726700D01*
X123222500Y-123583700D01*
X121838325Y-123583700D01*
X121689100Y-123732925D01*
X121619900Y-123732925D01*
X121619900Y-123666925D01*
X121470675Y-123517700D01*
X120586500Y-123517700D01*
X120459500Y-123517700D01*
X119575325Y-123517700D01*
X119426100Y-123666925D01*
X118605300Y-123666925D01*
X118605300Y-122814570D01*
X119116370Y-122303500D01*
X119538460Y-122303500D01*
X119586756Y-122378554D01*
X119778343Y-122509460D01*
X119684883Y-122548172D01*
X119516973Y-122716083D01*
X119426100Y-122935469D01*
X119426100Y-123241475D01*
X119575325Y-123390700D01*
X120459500Y-123390700D01*
X120459500Y-123370700D01*
X120586500Y-123370700D01*
X120586500Y-123390700D01*
X121470675Y-123390700D01*
X121619900Y-123241475D01*
X121619900Y-122935469D01*
X121529027Y-122716083D01*
X121361117Y-122548172D01*
X121264458Y-122508135D01*
X121447354Y-122390444D01*
X121583644Y-122190977D01*
X121631593Y-121954200D01*
X121631593Y-121154200D01*
X121589972Y-120933002D01*
X121459244Y-120729846D01*
X121272300Y-120602113D01*
X121272300Y-117226570D01*
X121849370Y-116649500D01*
X128536700Y-116649500D01*
X128536700Y-117581607D01*
M02*
